<?xml version="1.0" standalone="no"?>
<!DOCTYPE svg PUBLIC "-//W3C//DTD SVG 1.1//EN" "http://www.w3.org/Graphics/SVG/1.1/DTD/svg11.dtd" >
<svg xmlns="http://www.w3.org/2000/svg">
<metadata></metadata>
<defs>
<font id="abel_proregular" horiz-adv-x="929" >
<font-face units-per-em="2048" ascent="1536" descent="-512" />
<missing-glyph horiz-adv-x="471" />
<glyph horiz-adv-x="0" />
<glyph horiz-adv-x="682" />
<glyph unicode=" "  horiz-adv-x="471" />
<glyph unicode="&#x09;" horiz-adv-x="471" />
<glyph unicode="&#xa0;" horiz-adv-x="471" />
<glyph unicode="!" horiz-adv-x="428" d="M123 1434h182l-55 -1000h-72zM137 0v154h154v-154h-154z" />
<glyph unicode="&#x22;" horiz-adv-x="645" d="M123 1434h153l-51 -441h-51zM369 1434h153l-51 -441h-51z" />
<glyph unicode="#" horiz-adv-x="1310" d="M123 365v102h225l41 500h-225v102h235l31 365h121l-31 -365h332l31 365h121l-31 -365h215v-102h-225l-41 -500h225v-102h-236l-30 -365h-121l31 365h-332l-31 -365h-121l31 365h-215zM469 467h332l41 500h-332z" />
<glyph unicode="$" horiz-adv-x="1062" d="M143 332v57l129 21v-78q0 -94 64 -160.5t156 -69.5v582q-44 16 -74.5 28.5t-70 32.5t-66.5 40t-55 50t-44.5 63.5t-27.5 78.5t-11 98v27q0 145 102 247.5t247 104.5v184h102v-184q143 -3 244.5 -105.5t101.5 -246.5v-37l-129 -21v58q0 92 -63 158t-154 71v-555 q46 -18 75 -30.5t71 -34t68 -42t56 -51.5t46.5 -64.5t28 -79.5t11.5 -99v-43q0 -146 -103 -249t-249 -103h-4v-226h-102v226q-145 2 -247 104t-102 248zM272 1075q0 -97 56.5 -154.5t163.5 -103.5v514q-92 -5 -156 -71t-64 -158v-27zM594 102q94 0 160.5 67.5t66.5 162.5v43 q0 56 -17 99.5t-50.5 75t-70.5 53t-89 42.5v-543z" />
<glyph unicode="%" horiz-adv-x="1382" d="M143 915v349q0 73 52.5 125.5t126.5 52.5h28q74 0 126 -52.5t52 -125.5v-349q0 -73 -52 -125.5t-126 -52.5h-28q-74 0 -126.5 52.5t-52.5 125.5zM225 0l817 1434h115l-817 -1434h-115zM242 915q0 -34 24.5 -57.5t59.5 -23.5h20q35 0 59.5 23.5t24.5 57.5v349 q0 34 -24.5 58t-59.5 24h-20q-35 0 -59.5 -24t-24.5 -58v-349zM854 170v348q0 73 52 125.5t126 52.5h29q74 0 126 -52.5t52 -125.5v-348q0 -73 -52 -125.5t-126 -52.5h-29q-74 0 -126 52.5t-52 125.5zM952 170q0 -34 24.5 -58t59.5 -24h21q35 0 59.5 24t24.5 58v348 q0 34 -24.5 58t-59.5 24h-21q-35 0 -59.5 -24t-24.5 -58v-348z" />
<glyph unicode="&#x26;" horiz-adv-x="1271" d="M143 332v78q0 100 51 183t136 128q-85 45 -136 128t-51 183v70q0 146 103.5 249t249.5 103h61q146 0 249 -103t103 -249v-10l-129 -21v31q0 95 -67 162t-162 67h-49q-95 0 -162.5 -67t-67.5 -162v-90q0 -95 67.5 -162.5t162.5 -67.5h606v-120h-199v-345q3 -95 51.5 -155 t137.5 -60h30l-18 -122h-18q-84 0 -149.5 36t-104.5 101q-50 -64 -123.5 -100.5t-157.5 -36.5h-61q-146 0 -249.5 103t-103.5 249zM272 332q0 -95 67.5 -162.5t162.5 -67.5h49q92 0 158 64t71 156v337h-278q-95 0 -162.5 -67t-67.5 -162v-98z" />
<glyph unicode="'" horiz-adv-x="399" d="M143 993v441h154l-102 -441h-52z" />
<glyph unicode="(" horiz-adv-x="684" d="M123 598q0 587 428 1008l72 -72q-173 -179 -275 -419.5t-102 -516.5t102 -516.5t275 -419.5l-72 -72q-428 421 -428 1008z" />
<glyph unicode=")" horiz-adv-x="684" d="M61 -338q173 179 275 419.5t102 516.5t-102 516.5t-275 419.5l72 72q428 -421 428 -1008t-428 -1008z" />
<glyph unicode="*" horiz-adv-x="993" d="M102 1096l45 137l308 -131l-31 332h145l-30 -332l307 131l45 -137l-326 -74l221 -250l-118 -86l-170 287l-172 -287l-119 86l221 250z" />
<glyph unicode="+" horiz-adv-x="1187" d="M82 653v129h446v447h129v-447h449v-129h-449v-448h-129v448h-446z" />
<glyph unicode="," horiz-adv-x="440" d="M143 154h154l-102 -441h-52v441z" />
<glyph unicode="-" horiz-adv-x="587" d="M102 627v116h383v-116h-383z" />
<glyph unicode="." horiz-adv-x="440" d="M143 0v154h154v-154h-154z" />
<glyph unicode="/" horiz-adv-x="782" d="M41 -123l571 1679h129l-571 -1679h-129z" />
<glyph unicode="0" horiz-adv-x="1052" d="M143 332v770q0 146 103.5 249t249.5 103h61q146 0 249 -103t103 -249v-770q0 -146 -103 -249t-249 -103h-61q-146 0 -249.5 103t-103.5 249zM272 332q0 -95 67.5 -162.5t162.5 -67.5h49q95 0 162 67.5t67 162.5v770q0 95 -67 162t-162 67h-49q-95 0 -162.5 -67 t-67.5 -162v-770z" />
<glyph unicode="1" horiz-adv-x="1058" d="M164 0v123h342v1188l-342 -144v123l342 144h129v-1311h342v-123h-813z" />
<glyph unicode="2" horiz-adv-x="1011" d="M82 0v102q14 11 38 31t93.5 83t132.5 128.5t140 160t132.5 184t93.5 194.5t38 198q0 119 -67 184.5t-163 65.5h-49q-95 0 -162 -67t-67 -162v-58l-129 21v37q0 146 103 249t249 103h61q150 0 251.5 -103t101.5 -270q0 -92 -33 -195t-85 -193.5t-115.5 -178.5t-127 -157 t-115.5 -122.5t-85 -82.5l-33 -29h604v-123h-807z" />
<glyph unicode="3" horiz-adv-x="1052" d="M143 332v37l129 20v-57q0 -95 67.5 -162.5t162.5 -67.5h49q95 0 162 67.5t67 162.5v119q0 95 -67 162t-162 67h-96v123h96q95 0 162 67t67 162v70q0 95 -67 162t-162 67h-49q-95 0 -162.5 -67t-67.5 -162v-58l-129 21v37q0 146 103.5 249t249.5 103h61q146 0 249 -103 t103 -249v-49q0 -100 -51 -183.5t-135 -128.5q85 -45 135.5 -128t50.5 -183v-98q0 -146 -103 -249t-249 -103h-61q-146 0 -249.5 103t-103.5 249z" />
<glyph unicode="4" horiz-adv-x="1032" d="M61 248v61l637 1125h68v-1063h123v-123h-123v-248h-129v248h-576zM242 371h395v710z" />
<glyph unicode="5" horiz-adv-x="1052" d="M143 332v22h129v-22q0 -95 67.5 -162.5t162.5 -67.5h49q95 0 162 67.5t67 162.5v278q0 95 -67 162.5t-162 67.5h-49q-95 0 -162.5 -67.5t-67.5 -162.5h-129l82 824h613v-123h-492l-47 -441q100 93 238 93h20q146 0 249 -103.5t103 -249.5v-278q0 -146 -103 -249 t-249 -103h-61q-146 0 -249.5 103t-103.5 249z" />
<glyph unicode="6" horiz-adv-x="1052" d="M164 332v770q0 146 103 249t249 103h62q146 0 249 -103t103 -249v-37l-129 -21v58q0 95 -67.5 162t-162.5 67h-49q-95 0 -162 -67t-67 -162v-357q51 55 119.5 87t144.5 32h21q146 0 249 -103t103 -249v-180q0 -146 -103 -249t-249 -103h-62q-146 0 -249 103t-103 249z M293 332q0 -95 67 -162.5t162 -67.5h49q95 0 162.5 67.5t67.5 162.5v180q0 95 -67.5 162t-162.5 67h-49q-95 0 -162 -67t-67 -162v-180z" />
<glyph unicode="7" horiz-adv-x="1052" d="M164 1120v314h786v-62l-561 -1372h-135l537 1311h-498v-191h-129z" />
<glyph unicode="8" horiz-adv-x="1052" d="M143 332v119q0 89 41.5 165.5t112.5 124.5q-71 48 -112.5 125t-41.5 166v70q0 146 103.5 249t249.5 103h61q146 0 249 -103t103 -249v-70q0 -89 -41.5 -166t-111.5 -125q70 -48 111.5 -124.5t41.5 -165.5v-119q0 -146 -103 -249t-249 -103h-61q-146 0 -249.5 103 t-103.5 249zM272 332q0 -95 67.5 -162.5t162.5 -67.5h49q95 0 162 67.5t67 162.5v119q0 95 -67 162t-162 67h-49q-95 0 -162.5 -67t-67.5 -162v-119zM272 1032q0 -95 67.5 -162t162.5 -67h49q95 0 162 67t67 162v70q0 95 -67 162t-162 67h-49q-95 0 -162.5 -67t-67.5 -162 v-70z" />
<glyph unicode="9" horiz-adv-x="1052" d="M164 332v37l129 20v-57q0 -95 67 -162.5t162 -67.5h49q95 0 162.5 67.5t67.5 162.5v356q-51 -55 -119.5 -87t-144.5 -32h-21q-146 0 -249 103.5t-103 249.5v180q0 146 103 249t249 103h62q146 0 249 -103t103 -249v-770q0 -146 -103 -249t-249 -103h-62q-146 0 -249 103 t-103 249zM293 922q0 -95 67 -162.5t162 -67.5h49q95 0 162.5 67.5t67.5 162.5v180q0 95 -67.5 162t-162.5 67h-49q-95 0 -162 -67t-67 -162v-180z" />
<glyph unicode=":" horiz-adv-x="440" d="M143 0v154h154v-154h-154zM143 870v154h154v-154h-154z" />
<glyph unicode=";" horiz-adv-x="440" d="M143 154h154l-102 -441h-52v441zM143 870v154h154v-154h-154z" />
<glyph unicode="&#x3c;" horiz-adv-x="1249" d="M102 645v146l1024 456v-141l-878 -389l878 -387v-142z" />
<glyph unicode="=" horiz-adv-x="1351" d="M164 463v129h1024v-129h-1024zM164 844v129h1024v-129h-1024z" />
<glyph unicode="&#x3e;" horiz-adv-x="1249" d="M123 188v142l876 387l-876 389v141l1024 -456v-146z" />
<glyph unicode="?" horiz-adv-x="950" d="M102 1065v37q0 146 103.5 249t249.5 103h41q146 0 249 -103t103 -249v-19q0 -75 -20.5 -135.5t-54 -100.5t-73.5 -73.5t-79.5 -63.5t-73 -61.5t-54 -76t-20.5 -99.5v-39h-129v39q0 71 20.5 128t54 94t73.5 69t79.5 62t73 63.5t54 82.5t20.5 111v19q0 95 -67.5 162 t-162.5 67h-28q-95 0 -162.5 -67t-67.5 -162v-58zM332 0v154h153v-154h-153z" />
<glyph unicode="@" horiz-adv-x="2045" d="M143 367q0 217 78 416.5t211 347t319.5 235.5t393.5 88q173 0 316.5 -60t239.5 -165t149 -249.5t53 -313.5q0 -99 -18 -199t-57 -193.5t-93.5 -165.5t-133.5 -115.5t-171 -43.5q-184 0 -256 155q-52 -58 -120.5 -91t-142.5 -33h-30q-121 0 -198 90.5t-60 210.5l63 462 q17 124 119 212.5t225 88.5h31q74 0 133 -33t92 -91l84 104h41l-106 -770q-26 -195 149 -195q81 0 154.5 75t120.5 212.5t47 302.5q0 198 -75 352t-223.5 244t-349.5 90q-180 0 -340.5 -77t-273.5 -206t-178.5 -303.5t-65.5 -365.5q0 -149 40.5 -274.5t117.5 -219.5 t197 -147t270 -53q106 0 205.5 25.5t163.5 62.5l41 -94q-92 -56 -206 -84.5t-220 -28.5q-173 0 -313 61t-232 168t-141.5 252.5t-49.5 315.5zM743 274q-10 -72 31.5 -125t122.5 -53h82q73 0 132.5 52t70.5 126l67 476q9 70 -37 124t-116 54h-82q-73 0 -132.5 -52t-70.5 -126 z" />
<glyph unicode="A" horiz-adv-x="950" d="M20 0l420 1434h68l422 -1434h-133l-95 334h-454l-94 -334h-134zM283 457h385l-189 661l-4 53l-4 -53z" />
<glyph unicode="B" horiz-adv-x="1052" d="M164 0v1434h454q146 0 249.5 -103.5t103.5 -249.5v-14q0 -100 -51 -183t-136 -128q85 -45 136 -128.5t51 -183.5v-92q0 -146 -103.5 -249t-249.5 -103h-454zM293 123h319q95 0 162.5 67t67.5 162v113q0 95 -67.5 162t-162.5 67h-319v-571zM293 817h319q95 0 162.5 67.5 t67.5 162.5v34q0 95 -67.5 162.5t-162.5 67.5h-319v-494z" />
<glyph unicode="C" horiz-adv-x="1073" d="M143 332v770q0 146 103.5 249t249.5 103h102q146 0 249 -103t103 -249v-58l-129 -20v78q0 95 -67 162t-162 67h-90q-95 0 -162.5 -67t-67.5 -162v-770q0 -95 67.5 -162.5t162.5 -67.5h90q95 0 162 67.5t67 162.5v78l129 -21v-57q0 -146 -103 -249t-249 -103h-102 q-146 0 -249.5 103t-103.5 249z" />
<glyph unicode="D" horiz-adv-x="1114" d="M164 0v1434h454q146 0 249.5 -103.5t103.5 -249.5v-729q0 -146 -103.5 -249t-249.5 -103h-454zM293 123h319q95 0 162.5 67t67.5 162v729q0 95 -67.5 162.5t-162.5 67.5h-319v-1188z" />
<glyph unicode="E" horiz-adv-x="1052" d="M164 0v1434h807v-123h-678v-533h549v-123h-549v-532h678v-123h-807z" />
<glyph unicode="F" horiz-adv-x="1011" d="M164 0v1434h807v-123h-678v-533h549v-123h-549v-655h-129z" />
<glyph unicode="G" horiz-adv-x="1093" d="M143 332v770q0 146 103.5 249t249.5 103h102q146 0 249 -103t103 -249v-58l-129 -20v78q0 95 -67 162t-162 67h-90q-95 0 -162.5 -67t-67.5 -162v-770q0 -95 67.5 -162.5t162.5 -67.5h90q95 0 162 67.5t67 162.5v299h-229v123h358v-754h-41l-75 115q-47 -63 -115 -99 t-148 -36h-75q-146 0 -249.5 103t-103.5 249z" />
<glyph unicode="H" horiz-adv-x="1134" d="M164 0v1434h129v-656h549v656h129v-1434h-129v655h-549v-655h-129z" />
<glyph unicode="I" horiz-adv-x="456" d="M164 0v1434h129v-1434h-129z" />
<glyph unicode="J" d="M61 332v57l129 21v-78q0 -95 67.5 -162.5t162.5 -67.5h29q95 0 162 67.5t67 162.5v1102h129v-1102q0 -146 -103 -249t-249 -103h-41q-146 0 -249.5 103t-103.5 249z" />
<glyph unicode="K" horiz-adv-x="1064" d="M164 0v1434h129v-1434h-129zM324 717l540 717h160l-551 -717l551 -717h-160z" />
<glyph unicode="L" horiz-adv-x="862" d="M143 0v1434h129v-1311h549v-123h-678z" />
<glyph unicode="M" horiz-adv-x="1339" d="M164 0v1434h67l435 -1176l4 -53l4 53l434 1176h68v-1434h-129v983l-9 -61l-333 -922h-68l-336 922l-8 61v-983h-129z" />
<glyph unicode="N" horiz-adv-x="1134" d="M164 0v1434h67l598 -1045l13 -61v1106h129v-1434h-68l-598 1044l-12 62v-1106h-129z" />
<glyph unicode="O" horiz-adv-x="1093" d="M143 332v770q0 146 103.5 249t249.5 103h102q146 0 249 -103t103 -249v-770q0 -146 -103 -249t-249 -103h-102q-146 0 -249.5 103t-103.5 249zM272 332q0 -95 67.5 -162.5t162.5 -67.5h90q95 0 162 67.5t67 162.5v770q0 95 -67 162t-162 67h-90q-95 0 -162.5 -67 t-67.5 -162v-770z" />
<glyph unicode="P" horiz-adv-x="1052" d="M164 0v1434h454q146 0 249.5 -103.5t103.5 -249.5v-178q0 -146 -103.5 -249t-249.5 -103h-325v-551h-129zM293 674h319q95 0 162.5 67t67.5 162v178q0 95 -67.5 162.5t-162.5 67.5h-319v-637z" />
<glyph unicode="Q" horiz-adv-x="1093" d="M143 332v770q0 146 103.5 249t249.5 103h102q146 0 249 -103t103 -249v-770q0 -139 -94 -240t-231 -112l131 -295h-129l-131 295q-146 0 -249.5 103t-103.5 249zM272 332q0 -95 67.5 -162.5t162.5 -67.5h90q95 0 162 67.5t67 162.5v770q0 95 -67 162t-162 67h-90 q-95 0 -162.5 -67t-67.5 -162v-770z" />
<glyph unicode="R" horiz-adv-x="1069" d="M143 0v1434h455q146 0 249 -103.5t103 -249.5v-116q0 -146 -103 -249.5t-249 -103.5l389 -612h-149l-389 612h-177v-612h-129zM272 735h320q95 0 162 67.5t67 162.5v116q0 95 -67 162.5t-162 67.5h-320v-576z" />
<glyph unicode="S" horiz-adv-x="1062" d="M123 332v57l129 21v-78q0 -94 72 -162t168 -68h90q96 0 167.5 68t71.5 162v43q0 63 -23 111.5t-62.5 79.5t-90.5 56t-107 45.5t-112 42t-107 52.5t-90.5 70.5t-62.5 101.5t-23 141v27q0 146 103.5 249t249.5 103h92q146 0 249 -103t103 -249v-37l-129 -21v58 q0 95 -67 162t-162 67h-80q-95 0 -162.5 -67t-67.5 -162v-27q0 -75 37.5 -129t97 -86.5t132 -60t145 -60t132 -75t97 -116t37.5 -173.5v-43q0 -145 -107.5 -248.5t-254.5 -103.5h-103q-147 0 -254.5 103.5t-107.5 248.5z" />
<glyph unicode="T" horiz-adv-x="894" d="M41 1311v123h813v-123h-342v-1311h-129v1311h-342z" />
<glyph unicode="U" horiz-adv-x="1093" d="M143 332v1102h129v-1102q0 -95 67.5 -162.5t162.5 -67.5h90q95 0 162 67.5t67 162.5v1102h129v-1102q0 -146 -103 -249t-249 -103h-102q-146 0 -249.5 103t-103.5 249z" />
<glyph unicode="V" horiz-adv-x="950" d="M20 1434h134l317 -1119l4 -53l4 53l318 1119h133l-422 -1434h-68z" />
<glyph unicode="W" horiz-adv-x="1542" d="M41 1434h129l281 -1090l4 -53l4 53l276 1090h72l276 -1090l4 -53l5 53l280 1090h129l-379 -1434h-67l-279 1079l-4 56l-6 -56l-277 -1079h-67z" />
<glyph unicode="X" horiz-adv-x="991" d="M61 0l365 737l-344 697h139l275 -555l274 555h139l-344 -697l365 -737h-139l-295 596l-295 -596h-140z" />
<glyph unicode="Y" horiz-adv-x="950" d="M41 1434h139l295 -596l295 596h139l-368 -748v-686h-129v684z" />
<glyph unicode="Z" horiz-adv-x="970" d="M82 0v61l639 1250h-619v123h787v-62l-639 -1249h639v-123h-807z" />
<glyph unicode="[" horiz-adv-x="632" d="M164 -410v2016h366v-111h-243v-1794h243v-111h-366z" />
<glyph unicode="\" horiz-adv-x="782" d="M41 1556h129l571 -1679h-129z" />
<glyph unicode="]" horiz-adv-x="632" d="M102 -299h244v1794h-244v111h367v-2016h-367v111z" />
<glyph unicode="^" horiz-adv-x="1103" d="M123 776l360 658h138l360 -658h-137l-293 539l-291 -539h-137z" />
<glyph unicode="_" horiz-adv-x="1122" d="M-2 -293h1126v-117h-1126v117z" />
<glyph unicode="`" horiz-adv-x="778" d="M205 1434h205l163 -246h-92z" />
<glyph unicode="a" horiz-adv-x="940" d="M123 281v10q0 125 88.5 213t212.5 88h260v158q0 74 -52 126t-126 52h-72q-74 0 -126 -52t-52 -126v-37l-123 20v10q0 125 88.5 213t212.5 88h72q124 0 212.5 -88t88.5 -213v-743h-41l-68 102q-42 -57 -105.5 -89.5t-137.5 -32.5h-31q-124 0 -212.5 88t-88.5 213zM246 274 q0 -74 52 -126t126 -52h82q74 0 126 52t52 126v222h-260q-73 0 -125.5 -52.5t-52.5 -126.5v-43z" />
<glyph unicode="b" horiz-adv-x="940" d="M133 281v1153h123v-496q88 106 229 106h31q124 0 212.5 -88t88.5 -213v-462q0 -125 -88.5 -213t-212.5 -88h-82q-124 0 -212.5 88t-88.5 213zM256 274q0 -74 52 -126t126 -52h82q74 0 126 52t52 126v476q0 74 -52 126t-126 52h-82q-74 0 -126 -52t-52 -126v-476z" />
<glyph unicode="c" d="M123 281v462q0 125 88.5 213t212.5 88h82q124 0 212.5 -88t88.5 -213v-41l-123 -20v68q0 74 -52 126t-126 52h-82q-74 0 -126 -52t-52 -126v-476q0 -74 52 -126t126 -52h82q74 0 126 52t52 126v68l123 -20v-41q0 -125 -88.5 -213t-212.5 -88h-82q-124 0 -212.5 88 t-88.5 213z" />
<glyph unicode="d" horiz-adv-x="950" d="M123 281v462q0 125 88.5 213t212.5 88h31q141 0 229 -106v496h123v-1434h-41l-68 104q-42 -58 -105.5 -91t-137.5 -33h-31q-124 0 -212.5 88t-88.5 213zM246 274q0 -74 52 -126t126 -52h82q74 0 126 52t52 126v476q0 74 -52 126t-126 52h-82q-74 0 -126 -52t-52 -126 v-476z" />
<glyph unicode="e" d="M123 281v462q0 125 88.5 213t212.5 88h82q124 0 212.5 -88t88.5 -213v-241h-561v-228q0 -74 52 -126t126 -52h82q74 0 126 52t52 126v68l123 -20v-41q0 -125 -88.5 -213t-212.5 -88h-82q-124 0 -212.5 88t-88.5 213zM246 598h438v152q0 74 -52 126t-126 52h-82 q-74 0 -126 -52t-52 -126v-152z" />
<glyph unicode="f" horiz-adv-x="587" d="M20 907v117h185v139q0 113 79 192t191 79h113v-117h-113q-61 0 -104 -43t-43 -105v-145h239v-117h-239v-907h-123v907h-185z" />
<glyph unicode="g" d="M123 666v77q0 125 88.5 213t212.5 88h51q74 0 138 -33t106 -91l67 104h41v-358q0 -124 -88.5 -212.5t-212.5 -88.5h-178q-43 0 -73.5 -31t-30.5 -74t30.5 -73.5t73.5 -30.5h168q127 0 214 -79t87 -202v-4q0 -123 -87 -202t-214 -79h-51q-127 0 -214 79t-87 202v4 q0 118 82 197q-48 30 -76.5 79.5t-28.5 108.5q0 54 23 100t63 76q-48 42 -76 102t-28 128zM246 659q0 -73 52 -125.5t126 -52.5h102q74 0 126.5 52.5t52.5 125.5v91q0 73 -52.5 125.5t-126.5 52.5h-102q-74 0 -126 -52t-52 -126v-91zM281 -119v-16q0 -72 51 -115t127 -43h63 q76 0 127 43t51 115v16q0 72 -51 115t-127 43h-63q-76 0 -127 -43t-51 -115z" />
<glyph unicode="h" horiz-adv-x="960" d="M143 0v1434h123v-496q42 50 102 78t128 28h30q124 0 212.5 -88t88.5 -213v-743h-122v750q0 73 -52.5 125.5t-126.5 52.5h-82q-74 0 -126 -52t-52 -126v-750h-123z" />
<glyph unicode="i" horiz-adv-x="409" d="M133 1270v164h143v-164h-143zM143 0v1024h123v-1024h-123z" />
<glyph unicode="j" horiz-adv-x="409" d="M-35 -293q73 0 125.5 52.5t52.5 125.5v1139h123v-1133q0 -125 -88 -213t-213 -88v117zM133 1270v164h143v-164h-143z" />
<glyph unicode="k" horiz-adv-x="870" d="M143 0v1434h123v-1434h-123zM291 512l418 512h159l-428 -512l428 -512h-159z" />
<glyph unicode="l" horiz-adv-x="409" d="M143 0v1434h123v-1434h-123z" />
<glyph unicode="m" horiz-adv-x="1480" d="M143 0v1024h41l68 -104q42 58 106 91t138 33h10q85 0 156 -43t108 -114q39 72 110 114.5t156 42.5h11q125 0 213 -88t88 -213v-743h-123v750q0 74 -52.5 126t-125.5 52h-62q-73 0 -125.5 -52t-52.5 -126v-750h-123v750q0 74 -52 126t-126 52h-62q-74 0 -126 -52t-52 -126 v-750h-123z" />
<glyph unicode="n" horiz-adv-x="960" d="M143 0v1024h41l68 -104q42 58 106 91t138 33h30q124 0 212.5 -88t88.5 -213v-743h-122v750q0 73 -52.5 125.5t-126.5 52.5h-82q-74 0 -126 -52t-52 -126v-750h-123z" />
<glyph unicode="o" d="M123 281v462q0 125 88.5 213t212.5 88h82q124 0 212.5 -88t88.5 -213v-462q0 -125 -88.5 -213t-212.5 -88h-82q-124 0 -212.5 88t-88.5 213zM246 274q0 -74 52 -126t126 -52h82q74 0 126 52t52 126v476q0 74 -52 126t-126 52h-82q-74 0 -126 -52t-52 -126v-476z" />
<glyph unicode="p" horiz-adv-x="950" d="M143 -410v1434h41l68 -104q42 58 106 91t138 33h30q124 0 212.5 -88t88.5 -213v-462q0 -125 -88.5 -213t-212.5 -88h-30q-68 0 -128 28t-102 78v-496h-123zM266 274q0 -74 52 -126t126 -52h82q74 0 126.5 52.5t52.5 125.5v476q0 73 -52.5 125.5t-126.5 52.5h-82 q-74 0 -126 -52t-52 -126v-476z" />
<glyph unicode="q" horiz-adv-x="950" d="M123 281v462q0 125 88.5 213t212.5 88h31q74 0 137.5 -33t105.5 -91l68 104h41v-1434h-123v496q-88 -106 -229 -106h-31q-124 0 -212.5 88t-88.5 213zM246 274q0 -74 52 -126t126 -52h82q74 0 126 52t52 126v476q0 74 -52 126t-126 52h-82q-74 0 -126 -52t-52 -126v-476z " />
<glyph unicode="r" horiz-adv-x="608" d="M143 0v1024h41l68 -104q42 58 106 91t138 33h71v-137h-123q-74 0 -126 -52.5t-52 -125.5v-729h-123z" />
<glyph unicode="s" horiz-adv-x="940" d="M123 281v41l123 20v-68q0 -73 57 -125.5t131 -52.5h82q77 0 133 43.5t56 114.5q0 47 -19 81.5t-51.5 56t-75 37.5t-89 29.5t-93 28t-89 37t-75 52t-51.5 77.5t-19 111q0 123 87 201.5t214 78.5h72q124 0 212.5 -88t88.5 -213v-4l-123 -20v31q0 74 -52 126t-126 52h-72 q-76 0 -127 -43t-51 -115q0 -50 24 -86.5t63.5 -56.5t90 -38.5t103 -32t103 -37.5t90 -54t63.5 -82.5t24 -122.5q0 -122 -91.5 -201t-219.5 -79h-82q-125 0 -218 88.5t-93 212.5z" />
<glyph unicode="t" horiz-adv-x="710" d="M41 907v117h184v246l123 20v-266h260v-117h-260v-643q0 -61 43 -104t105 -43h112v-117h-112q-113 0 -192 79t-79 191v637h-184z" />
<glyph unicode="u" horiz-adv-x="960" d="M133 281v743h123v-750q0 -74 52 -126t126 -52h82q74 0 126 52t52 126v750h123v-1024h-41l-67 104q-42 -58 -106 -91t-138 -33h-31q-124 0 -212.5 88t-88.5 213z" />
<glyph unicode="v" horiz-adv-x="827" d="M20 1024h123l267 -776l4 -53l4 53l266 776h123l-363 -1024h-61z" />
<glyph unicode="w" horiz-adv-x="1347" d="M20 1024h125l244 -774l4 -53l4 53l240 774h74l239 -774l4 -53l4 53l244 774h125l-342 -1024h-67l-240 772l-4 53l-4 -53l-240 -772h-68z" />
<glyph unicode="x" horiz-adv-x="868" d="M82 0l287 512l-287 512h133l219 -393l219 393h133l-286 -512l286 -512h-133l-219 393l-219 -393h-133z" />
<glyph unicode="y" horiz-adv-x="806" d="M20 1024h123l267 -776l4 -53l4 53l266 776h123l-518 -1434h-119l182 498z" />
<glyph unicode="z" horiz-adv-x="847" d="M82 0v55l516 852h-496v117h664v-55l-516 -852h516v-117h-684z" />
<glyph unicode="{" horiz-adv-x="778" d="M82 543v110h33q96 3 157.5 66.5t61.5 163.5v370q0 153 100.5 253t251.5 100h10v-111h-10q-100 0 -164.5 -63.5t-64.5 -165.5v-371q0 -95 -42 -173.5t-114 -123.5q72 -47 114 -124.5t42 -172.5v-371q0 -102 64.5 -165.5t164.5 -63.5h10v-111h-10q-151 0 -251.5 100 t-100.5 253v370q0 102 -65 166t-165 64h-22z" />
<glyph unicode="|" horiz-adv-x="456" d="M164 -410v2016h129v-2016h-129z" />
<glyph unicode="}" horiz-adv-x="778" d="M82 -299h10q101 0 165.5 63.5t64.5 165.5v371q0 96 41 173.5t114 123.5q-73 45 -114 123t-41 174v371q0 102 -64.5 165.5t-165.5 63.5h-10v111h10q151 0 251.5 -100t100.5 -253v-370q0 -102 65 -166t165 -64h22v-110h-32q-97 -3 -158.5 -67t-61.5 -163v-370 q0 -153 -100.5 -253t-251.5 -100h-10v111z" />
<glyph unicode="~" horiz-adv-x="985" d="M102 494q0 113 59 185.5t167 72.5q43 0 83.5 -15t71.5 -37t59.5 -44t58.5 -37t58 -15q54 0 85.5 41.5t31.5 104.5h107q0 -113 -58.5 -185.5t-167.5 -72.5q-53 0 -103 23t-82.5 50.5t-72.5 50.5t-73 23q-53 0 -85 -40.5t-32 -104.5h-107z" />
<glyph unicode="&#xa1;" horiz-adv-x="428" d="M123 -410l55 1000h72l55 -1000h-182zM137 870v154h154v-154h-154z" />
<glyph unicode="&#xa2;" d="M123 485v463q0 124 88.5 212.5t212.5 88.5h82q38 0 65 -8l66 213h108l-77 -252q64 -40 101.5 -107.5t37.5 -146.5v-41l-123 -20v67q0 74 -53 127l-238 -778q10 -2 31 -2h82q74 0 126 52.5t52 125.5v68l123 -21v-41q0 -125 -88.5 -213t-212.5 -88h-82q-36 0 -66 6 l-65 -210h-109l78 251q-64 40 -101.5 107.5t-37.5 146.5zM246 479q0 -74 53 -127l238 776q-25 5 -31 5h-82q-73 0 -125.5 -52.5t-52.5 -126.5v-475z" />
<glyph unicode="&#xa3;" horiz-adv-x="1107" d="M123 0v123h35q93 0 151 66t58 163q0 93 -33 232h-211v102h180q-54 188 -67 272q-11 74 -11 144q0 146 103.5 249t249.5 103h28q146 0 249 -103t103 -249v-37l-129 -21v58q0 95 -67 162t-162 67h-16q-95 0 -162.5 -67t-67.5 -162q0 -31 2 -61t8 -63t10.5 -56.5t15 -61 t15.5 -55.5t18 -61t17 -58h340v-102h-313q29 -134 29 -232q0 -130 -76 -229h545v-123h-842z" />
<glyph unicode="&#xa4;" horiz-adv-x="1236" d="M123 313l153 154q-81 107 -81 252q0 142 79 250l-149 151l90 92l150 -151q114 84 253 84q141 0 252 -84l152 151l90 -92l-149 -149q81 -114 81 -252q0 -142 -83 -252l153 -154l-92 -90l-154 152q-110 -80 -250 -80q-141 0 -251 80l-152 -152zM317 719q0 -128 87 -216.5 t214 -88.5t215.5 88.5t88.5 216.5t-88.5 217.5t-215.5 89.5t-214 -89.5t-87 -217.5z" />
<glyph unicode="&#xa5;" horiz-adv-x="950" d="M41 1434h139l295 -596l295 596h139l-356 -723h274v-103h-286v-133h286v-102h-286v-373h-129v373h-289v102h289v133h-289v103h274z" />
<glyph unicode="&#xa6;" horiz-adv-x="456" d="M164 -410v906h129v-906h-129zM164 700v906h129v-906h-129z" />
<glyph unicode="&#xa7;" horiz-adv-x="1073" d="M123 -20l129 20v-78q0 -94 72 -161.5t168 -67.5h90q96 0 167.5 67.5t71.5 161.5v43q0 63 -23 111.5t-62.5 79.5t-90.5 56t-107 45.5t-112 42.5t-107 53t-90.5 70.5t-62.5 101.5t-23 141v26q0 98 52 185q-52 80 -52 198v27q0 146 103.5 249t249.5 103h92q146 0 249 -103 t103 -249v-37l-129 -21v58q0 95 -67 162t-162 67h-80q-95 0 -162.5 -67t-67.5 -162v-27q0 -75 37.5 -129t97 -86.5t132 -60t145 -60t132 -75t97 -116t37.5 -173.5v-43q0 -93 -49 -174q49 -81 49 -193v-43q0 -145 -107.5 -248.5t-254.5 -103.5h-103q-147 0 -254.5 103.5 t-107.5 248.5v58zM272 666q0 -74 35.5 -127.5t97 -87.5t127 -59t145 -59.5t130.5 -72.5q14 40 14 72v43q0 78 -34.5 133.5t-96 89.5t-125.5 58.5t-143.5 56.5t-130.5 67q-19 -43 -19 -88v-26z" />
<glyph unicode="&#xa8;" horiz-adv-x="950" d="M205 1231v153h153v-153h-153zM592 1231v153h153v-153h-153z" />
<glyph unicode="&#xa9;" horiz-adv-x="1679" d="M102 717q0 150 58.5 286.5t157 235.5t235.5 157t287 58t286.5 -58t235.5 -157t157 -235.5t58 -286.5t-58 -286.5t-157 -235.5t-235.5 -157t-286.5 -58t-287 58t-235.5 157t-157 235.5t-58.5 286.5zM217 717q0 -129 48.5 -246t131.5 -201.5t198.5 -134t244.5 -49.5 q172 0 315 84t225 229t82 318t-82 318t-225 229t-315 84q-129 0 -244.5 -49.5t-198.5 -134t-131.5 -201.5t-48.5 -246zM580 485v463q0 95 67 162.5t162 67.5h61q95 0 162.5 -67.5t67.5 -162.5v-51l-115 -18v69q0 50 -34.5 84.5t-84.5 34.5h-53q-49 0 -84 -34.5t-35 -84.5 v-463q0 -49 34.5 -83.5t84.5 -34.5h53q50 0 84.5 34.5t34.5 83.5v70l115 -18v-52q0 -95 -67.5 -162t-162.5 -67h-61q-95 0 -162 67t-67 162z" />
<glyph unicode="&#xaa;" horiz-adv-x="716" d="M143 553v78h430v-78h-430zM143 979q0 79 55.5 134.5t135.5 55.5h145v86q0 39 -28.5 68t-67.5 29h-43q-39 0 -67.5 -29t-28.5 -68v-36l-94 24q0 82 55.5 140.5t134.5 58.5h43q79 0 134.5 -56.5t55.5 -134.5v-456h-41l-36 53q-27 -29 -66.5 -47.5t-77.5 -18.5h-18 q-80 0 -135.5 57t-55.5 140zM238 969q0 -39 28.5 -68t67.5 -29h49q39 0 67.5 29t28.5 68v123h-145q-40 0 -68 -28.5t-28 -68.5v-26z" />
<glyph unicode="&#xab;" horiz-adv-x="960" d="M82 467l377 383l41 -41l-250 -342l250 -342l-41 -41zM420 467l377 383l41 -41l-250 -342l250 -342l-41 -41z" />
<glyph unicode="&#xac;" horiz-adv-x="1269" d="M123 653v129h1024v-473h-129v344h-895z" />
<glyph unicode="&#xad;" horiz-adv-x="0" />
<glyph unicode="&#xae;" horiz-adv-x="1679" d="M102 717q0 150 58.5 286.5t157 235.5t235.5 157t287 58t286.5 -58t235.5 -157t157 -235.5t58 -286.5t-58 -286.5t-157 -235.5t-235.5 -157t-286.5 -58t-287 58t-235.5 157t-157 235.5t-58.5 286.5zM217 717q0 -129 48.5 -246t131.5 -201.5t198.5 -134t244.5 -49.5 q172 0 315 84t225 229t82 318t-82 318t-225 229t-315 84q-129 0 -244.5 -49.5t-198.5 -134t-131.5 -201.5t-48.5 -246zM600 268v897h291q95 0 162 -67t67 -162v-107q0 -88 -55 -153.5t-139 -75.5l211 -332h-131l-209 330h-82v-330h-115zM715 709h172q50 0 84.5 34.5 t34.5 85.5v107q0 50 -35 84.5t-84 34.5h-172v-346z" />
<glyph unicode="&#xaf;" horiz-adv-x="1009" d="M246 1231v98h518v-98h-518z" />
<glyph unicode="&#xb0;" horiz-adv-x="856" d="M143 1169q0 119 83.5 202t201.5 83t201.5 -83t83.5 -202q0 -118 -83 -201t-202 -83t-202 83t-83 201zM258 1169q0 -71 50 -121.5t120 -50.5t120 50.5t50 121.5t-50 121.5t-120 50.5t-120 -50.5t-50 -121.5z" />
<glyph unicode="&#xb1;" horiz-adv-x="1351" d="M164 76v129h446v448h-446v129h446v447h129v-447h449v-129h-449v-448h449v-129h-1024z" />
<glyph unicode="&#xb2;" horiz-adv-x="692" d="M143 745v78q12 10 32.5 27t72.5 68t91.5 100t72 114.5t32.5 120.5q0 44 -24 68.5t-58 24.5h-22q-35 0 -59.5 -24.5t-24.5 -59.5v-48l-98 13v35q0 74 53 127t125 53h29q76 0 127 -52t51 -137q0 -50 -24 -110.5t-58.5 -111.5t-69 -95t-58.5 -69l-24 -25h240v-97h-406z" />
<glyph unicode="&#xb3;" horiz-adv-x="671" d="M143 915v35l99 15v-50q0 -34 24.5 -57.5t59.5 -23.5h20q35 0 59.5 23.5t24.5 57.5v54q0 35 -24.5 59.5t-59.5 24.5h-63v96h63q35 0 59.5 24t24.5 58v33q0 34 -24.5 58t-59.5 24h-20q-35 0 -59.5 -24t-24.5 -58v-50l-99 15v35q0 73 52.5 125.5t126.5 52.5h28 q74 0 126 -52.5t52 -125.5v-23q0 -91 -65 -141q29 -26 47 -63t18 -76v-46q0 -73 -52 -125.5t-126 -52.5h-28q-74 0 -126.5 52.5t-52.5 125.5z" />
<glyph unicode="&#xb4;" horiz-adv-x="778" d="M205 1188l164 246h204l-276 -246h-92z" />
<glyph unicode="&#xb5;" horiz-adv-x="999" d="M154 -295v1319h122v-750q0 -73 52.5 -125.5t126.5 -52.5h82q73 0 125.5 52t52.5 126v750h123v-756q0 -62 43 -104.5t104 -42.5h14v-121h-10q-76 0 -139.5 36t-99.5 97q-45 -75 -118 -114t-147 -39h-30q-101 0 -179 59v-334h-122z" />
<glyph unicode="&#xb6;" horiz-adv-x="1155" d="M102 985v96q0 146 103.5 249.5t249.5 103.5h536v-1844h-129v1721h-176v-1721h-129v1043h-102q-146 0 -249.5 103t-103.5 249z" />
<glyph unicode="&#xb7;" horiz-adv-x="440" d="M143 655v154h154v-154h-154z" />
<glyph unicode="&#xb8;" horiz-adv-x="741" d="M205 -348l47 72q12 -16 40 -31t62 -15q38 0 63 21.5t25 58.5q0 46 -34.5 70.5t-83.5 21.5l92 150h86l-60 -102q30 -12 62.5 -49.5t32.5 -94.5q0 -75 -52 -120.5t-133 -45.5q-83 0 -147 64z" />
<glyph unicode="&#xb9;" horiz-adv-x="694" d="M143 745v97h156v485l-156 -65v100l174 72h80v-592h154v-97h-408z" />
<glyph unicode="&#xba;" horiz-adv-x="716" d="M143 553v78h430v-78h-430zM143 973v278q0 78 56 134.5t135 56.5h49q79 0 134.5 -56.5t55.5 -134.5v-278q0 -78 -55.5 -134.5t-134.5 -56.5h-49q-79 0 -135 56.5t-56 134.5zM238 969q0 -39 28.5 -68t67.5 -29h49q39 0 67.5 29t28.5 68v286q0 39 -28.5 68t-67.5 29h-49 q-39 0 -67.5 -29t-28.5 -68v-286z" />
<glyph unicode="&#xbb;" horiz-adv-x="960" d="M123 125l250 342l-250 342l41 41l377 -383l-377 -383zM461 125l250 342l-250 342l41 41l377 -383l-377 -383z" />
<glyph unicode="&#xbc;" horiz-adv-x="1363" d="M143 745v97h156v485l-156 -65v100l174 72h80v-592h154v-97h-408zM287 0l817 1434h115l-818 -1434h-114zM815 119v47l293 520h57v-479h56v-88h-56v-119h-90v119h-260zM942 207h133v242z" />
<glyph unicode="&#xbd;" horiz-adv-x="1447" d="M143 745v97h156v485l-156 -65v100l174 72h80v-592h154v-97h-408zM287 0l817 1434h115l-818 -1434h-114zM899 0v78q12 10 32.5 27t72.5 68t91.5 100t72 114.5t32.5 120.5q0 44 -24 68t-58 24h-22q-35 0 -59.5 -24.5t-24.5 -59.5v-47l-99 12v35q0 74 53 127t126 53h28 q77 0 127.5 -51.5t50.5 -136.5q0 -50 -24 -110.5t-58 -112t-68.5 -95.5t-58.5 -69l-24 -25h240v-96h-406z" />
<glyph unicode="&#xbe;" horiz-adv-x="1363" d="M143 915v35l99 15v-50q0 -34 24.5 -57.5t59.5 -23.5h20q35 0 59.5 23.5t24.5 57.5v54q0 35 -24.5 59.5t-59.5 24.5h-63v96h63q35 0 59.5 24t24.5 58v33q0 34 -24.5 58t-59.5 24h-20q-35 0 -59.5 -24t-24.5 -58v-50l-99 15v35q0 73 52.5 125.5t126.5 52.5h28 q74 0 126 -52.5t52 -125.5v-23q0 -91 -65 -141q29 -26 47 -63t18 -76v-46q0 -73 -52 -125.5t-126 -52.5h-28q-74 0 -126.5 52.5t-52.5 125.5zM287 0l817 1434h115l-818 -1434h-114zM815 119v47l293 520h57v-479h56v-88h-56v-119h-90v119h-260zM942 207h133v242z" />
<glyph unicode="&#xbf;" horiz-adv-x="950" d="M102 -59q0 75 20.5 135.5t54 100.5t73.5 73.5t79.5 63.5t73 61.5t54 76t20.5 99.5v39h129v-39q0 -71 -20.5 -128t-54 -94t-73.5 -69t-79.5 -62t-73 -63.5t-54 -82.5t-20.5 -111v-19q0 -95 67.5 -162t162.5 -67h28q95 0 162.5 67t67.5 162v58l129 -21v-37 q0 -146 -103 -249t-249 -103h-41q-146 0 -249.5 103t-103.5 249v19zM465 870v154h153v-154h-153z" />
<glyph unicode="&#xc0;" horiz-adv-x="950" d="M20 0l420 1434h68l422 -1434h-133l-95 334h-454l-94 -334h-134zM250 1843h205l163 -246h-92zM283 457h385l-189 661l-4 53l-4 -53z" />
<glyph unicode="&#xc1;" horiz-adv-x="950" d="M20 0l420 1434h68l422 -1434h-133l-95 334h-454l-94 -334h-134zM283 457h385l-189 661l-4 53l-4 -53zM332 1597l164 246h204l-276 -246h-92z" />
<glyph unicode="&#xc2;" horiz-adv-x="950" d="M20 0l420 1434h68l422 -1434h-133l-95 334h-454l-94 -334h-134zM209 1597l205 246h123l204 -246h-123l-143 164l-143 -164h-123zM283 457h385l-189 661l-4 53l-4 -53z" />
<glyph unicode="&#xc3;" horiz-adv-x="950" d="M20 0l420 1434h68l422 -1434h-133l-95 334h-454l-94 -334h-134zM160 1630q0 94 46.5 153.5t135.5 59.5q40 0 79 -18t65.5 -39t60.5 -39t65 -18q41 0 63.5 31t22.5 83h95q0 -94 -48 -154.5t-135 -60.5q-43 0 -84.5 18t-68.5 39.5t-59.5 39.5t-59.5 18q-40 0 -62 -31 t-22 -82h-94zM283 457h385l-189 661l-4 53l-4 -53z" />
<glyph unicode="&#xc4;" horiz-adv-x="950" d="M20 0l420 1434h68l422 -1434h-133l-95 334h-454l-94 -334h-134zM205 1640v154h153v-154h-153zM283 457h385l-189 661l-4 53l-4 -53zM592 1640v154h153v-154h-153z" />
<glyph unicode="&#xc5;" horiz-adv-x="950" d="M20 0l394 1343q-67 20 -108.5 76t-41.5 127q0 88 61.5 150.5t149.5 62.5t150.5 -62.5t62.5 -150.5q0 -71 -43 -127.5t-110 -75.5l395 -1343h-133l-95 334h-454l-94 -334h-134zM283 457h385l-189 661l-4 53l-4 -53zM367 1546q0 -44 32 -77t76 -33q45 0 78 33t33 77 q0 46 -32.5 79.5t-78.5 33.5q-44 0 -76 -33.5t-32 -79.5z" />
<glyph unicode="&#xc6;" horiz-adv-x="1767" d="M20 0l859 1434h807v-123h-678v-533h548v-123h-548v-532h678v-123h-807v334h-527l-198 -334h-134zM426 457h453v772l-21 -53z" />
<glyph unicode="&#xc7;" horiz-adv-x="1073" d="M143 332v770q0 146 103.5 249t249.5 103h102q146 0 249 -103t103 -249v-58l-129 -20v78q0 95 -67 162t-162 67h-90q-95 0 -162.5 -67t-67.5 -162v-770q0 -95 67.5 -162.5t162.5 -67.5h90q95 0 162 67.5t67 162.5v78l129 -21v-57q0 -146 -103 -249t-249 -103h-4l-47 -82 q30 -12 62 -49.5t32 -94.5q0 -75 -51.5 -120.5t-132.5 -45.5q-84 0 -148 64l47 72q12 -16 40.5 -31t62.5 -15q38 0 63 21.5t25 58.5q0 45 -34.5 70t-84.5 22l80 130h-12q-146 0 -249.5 103t-103.5 249z" />
<glyph unicode="&#xc8;" horiz-adv-x="1052" d="M164 0v1434h807v-123h-678v-533h549v-123h-549v-532h678v-123h-807zM301 1843h205l164 -246h-92z" />
<glyph unicode="&#xc9;" horiz-adv-x="1052" d="M164 0v1434h807v-123h-678v-533h549v-123h-549v-532h678v-123h-807zM424 1597l164 246h205l-277 -246h-92z" />
<glyph unicode="&#xca;" horiz-adv-x="1052" d="M164 0v1434h807v-123h-678v-533h549v-123h-549v-532h678v-123h-807zM301 1597l205 246h123l205 -246h-123l-144 164l-143 -164h-123z" />
<glyph unicode="&#xcb;" horiz-adv-x="1052" d="M164 0v1434h807v-123h-678v-533h549v-123h-549v-532h678v-123h-807zM256 1640v154h154v-154h-154zM643 1640v154h154v-154h-154z" />
<glyph unicode="&#xcc;" horiz-adv-x="456" d="M4 1843h205l164 -246h-92zM164 0v1434h129v-1434h-129z" />
<glyph unicode="&#xcd;" horiz-adv-x="456" d="M86 1597l164 246h205l-277 -246h-92zM164 0v1434h129v-1434h-129z" />
<glyph unicode="&#xce;" horiz-adv-x="456" d="M-37 1597l205 246h123l205 -246h-123l-144 164l-143 -164h-123zM164 0v1434h129v-1434h-129z" />
<glyph unicode="&#xcf;" horiz-adv-x="456" d="M-41 1640v154h154v-154h-154zM164 0v1434h129v-1434h-129zM346 1640v154h154v-154h-154z" />
<glyph unicode="&#xd0;" horiz-adv-x="1138" d="M61 584v102h127v748h455q146 0 249 -103.5t103 -249.5v-729q0 -146 -103 -249t-249 -103h-455v584h-127zM317 123h320q95 0 162 67t67 162v729q0 95 -67 162.5t-162 67.5h-320v-625h240v-102h-240v-461z" />
<glyph unicode="&#xd1;" horiz-adv-x="1134" d="M164 0v1434h67l598 -1045l13 -61v1106h129v-1434h-68l-598 1044l-12 62v-1106h-129zM250 1630q0 94 46.5 153.5t135.5 59.5q40 0 79 -18t65.5 -39t60.5 -39t65 -18q41 0 63.5 31t22.5 83h95q0 -94 -48 -154.5t-135 -60.5q-43 0 -84.5 18t-68.5 39.5t-59.5 39.5t-59.5 18 q-40 0 -62 -31t-22 -82h-94z" />
<glyph unicode="&#xd2;" horiz-adv-x="1093" d="M143 332v770q0 146 103.5 249t249.5 103h102q146 0 249 -103t103 -249v-770q0 -146 -103 -249t-249 -103h-102q-146 0 -249.5 103t-103.5 249zM272 332q0 -95 67.5 -162.5t162.5 -67.5h90q95 0 162 67.5t67 162.5v770q0 95 -67 162t-162 67h-90q-95 0 -162.5 -67 t-67.5 -162v-770zM342 1843h205l164 -246h-93z" />
<glyph unicode="&#xd3;" horiz-adv-x="1093" d="M143 332v770q0 146 103.5 249t249.5 103h102q146 0 249 -103t103 -249v-770q0 -146 -103 -249t-249 -103h-102q-146 0 -249.5 103t-103.5 249zM272 332q0 -95 67.5 -162.5t162.5 -67.5h90q95 0 162 67.5t67 162.5v770q0 95 -67 162t-162 67h-90q-95 0 -162.5 -67 t-67.5 -162v-770zM424 1597l164 246h205l-277 -246h-92z" />
<glyph unicode="&#xd4;" horiz-adv-x="1093" d="M143 332v770q0 146 103.5 249t249.5 103h102q146 0 249 -103t103 -249v-770q0 -146 -103 -249t-249 -103h-102q-146 0 -249.5 103t-103.5 249zM272 332q0 -95 67.5 -162.5t162.5 -67.5h90q95 0 162 67.5t67 162.5v770q0 95 -67 162t-162 67h-90q-95 0 -162.5 -67 t-67.5 -162v-770zM281 1597l204 246h123l205 -246h-123l-143 164l-144 -164h-122z" />
<glyph unicode="&#xd5;" horiz-adv-x="1093" d="M143 332v770q0 146 103.5 249t249.5 103h102q146 0 249 -103t103 -249v-770q0 -146 -103 -249t-249 -103h-102q-146 0 -249.5 103t-103.5 249zM229 1630q0 94 47 153.5t136 59.5q40 0 79 -18t65.5 -39t60.5 -39t65 -18q41 0 63.5 31t22.5 83h94q0 -94 -47.5 -154.5 t-134.5 -60.5q-43 0 -84.5 18t-68.5 39.5t-59.5 39.5t-59.5 18q-40 0 -62 -31t-22 -82h-95zM272 332q0 -95 67.5 -162.5t162.5 -67.5h90q95 0 162 67.5t67 162.5v770q0 95 -67 162t-162 67h-90q-95 0 -162.5 -67t-67.5 -162v-770z" />
<glyph unicode="&#xd6;" horiz-adv-x="1093" d="M143 332v770q0 146 103.5 249t249.5 103h102q146 0 249 -103t103 -249v-770q0 -146 -103 -249t-249 -103h-102q-146 0 -249.5 103t-103.5 249zM272 332q0 -95 67.5 -162.5t162.5 -67.5h90q95 0 162 67.5t67 162.5v770q0 95 -67 162t-162 67h-90q-95 0 -162.5 -67 t-67.5 -162v-770zM276 1640v154h154v-154h-154zM664 1640v154h153v-154h-153z" />
<glyph unicode="&#xd7;" horiz-adv-x="1196" d="M102 313l404 406l-402 401l91 92l403 -403l403 403l91 -92l-402 -401l404 -406l-93 -90l-403 404l-403 -404z" />
<glyph unicode="&#xd8;" horiz-adv-x="1093" d="M102 -61l99 198q-58 86 -58 195v770q0 146 103.5 249t249.5 103h102q127 0 223 -80l62 121h108l-100 -201q59 -88 59 -192v-770q0 -146 -103 -249t-249 -103h-102q-132 0 -226 79l-59 -120h-109zM272 332q0 -31 4 -45l486 968q-66 76 -170 76h-90q-95 0 -162.5 -67 t-67.5 -162v-770zM330 178q70 -76 172 -76h90q95 0 162 67.5t67 162.5v770q0 17 -4 45z" />
<glyph unicode="&#xd9;" horiz-adv-x="1093" d="M143 332v1102h129v-1102q0 -95 67.5 -162.5t162.5 -67.5h90q95 0 162 67.5t67 162.5v1102h129v-1102q0 -146 -103 -249t-249 -103h-102q-146 0 -249.5 103t-103.5 249zM301 1843h205l164 -246h-92z" />
<glyph unicode="&#xda;" horiz-adv-x="1093" d="M143 332v1102h129v-1102q0 -95 67.5 -162.5t162.5 -67.5h90q95 0 162 67.5t67 162.5v1102h129v-1102q0 -146 -103 -249t-249 -103h-102q-146 0 -249.5 103t-103.5 249zM424 1597l164 246h205l-277 -246h-92z" />
<glyph unicode="&#xdb;" horiz-adv-x="1093" d="M143 332v1102h129v-1102q0 -95 67.5 -162.5t162.5 -67.5h90q95 0 162 67.5t67 162.5v1102h129v-1102q0 -146 -103 -249t-249 -103h-102q-146 0 -249.5 103t-103.5 249zM281 1597l204 246h123l205 -246h-123l-143 164l-144 -164h-122z" />
<glyph unicode="&#xdc;" horiz-adv-x="1093" d="M143 332v1102h129v-1102q0 -95 67.5 -162.5t162.5 -67.5h90q95 0 162 67.5t67 162.5v1102h129v-1102q0 -146 -103 -249t-249 -103h-102q-146 0 -249.5 103t-103.5 249zM276 1640v154h154v-154h-154zM664 1640v154h153v-154h-153z" />
<glyph unicode="&#xdd;" horiz-adv-x="950" d="M41 1434h139l295 -596l295 596h139l-368 -748v-686h-129v684zM373 1597l164 246h204l-276 -246h-92z" />
<glyph unicode="&#xde;" horiz-adv-x="1052" d="M164 0v1434h129v-283h325q146 0 249.5 -103t103.5 -249v-117q0 -146 -103.5 -249t-249.5 -103h-325v-330h-129zM293 453h319q95 0 162.5 67t67.5 162v117q0 95 -67.5 162t-162.5 67h-319v-575z" />
<glyph unicode="&#xdf;" horiz-adv-x="1052" d="M170 0v1102q0 147 100 249.5t246 102.5h66q146 0 249 -103t103 -249v-25q0 -100 -50.5 -183t-135.5 -128q85 -45 135.5 -128t50.5 -183v-103q0 -146 -103 -249t-249 -103h-111v117h111q95 0 162 67t67 162v131q0 95 -67 162.5t-162 67.5h-111v116h111q95 0 162 67.5 t67 162.5v55q0 95 -67 162t-162 67h-60q-95 0 -162 -67t-67 -162v-1108h-123z" />
<glyph unicode="&#xe0;" d="M123 281v10q0 125 88.5 213t212.5 88h260v158q0 74 -52 126t-126 52h-72q-74 0 -126 -52t-52 -126v-37l-123 20v10q0 125 88.5 213t212.5 88h72q124 0 212.5 -88t88.5 -213v-743h-41l-68 102q-42 -57 -105.5 -89.5t-137.5 -32.5h-31q-124 0 -212.5 88t-88.5 213z M240 1434h204l164 -246h-92zM246 274q0 -74 52 -126t126 -52h82q74 0 126 52t52 126v222h-260q-73 0 -125.5 -52.5t-52.5 -126.5v-43z" />
<glyph unicode="&#xe1;" d="M123 281v10q0 125 88.5 213t212.5 88h260v158q0 74 -52 126t-126 52h-72q-74 0 -126 -52t-52 -126v-37l-123 20v10q0 125 88.5 213t212.5 88h72q124 0 212.5 -88t88.5 -213v-743h-41l-68 102q-42 -57 -105.5 -89.5t-137.5 -32.5h-31q-124 0 -212.5 88t-88.5 213zM246 274 q0 -74 52 -126t126 -52h82q74 0 126 52t52 126v222h-260q-73 0 -125.5 -52.5t-52.5 -126.5v-43zM322 1188l163 246h205l-276 -246h-92z" />
<glyph unicode="&#xe2;" d="M123 281v10q0 125 88.5 213t212.5 88h260v158q0 74 -52 126t-126 52h-72q-74 0 -126 -52t-52 -126v-37l-123 20v10q0 125 88.5 213t212.5 88h72q124 0 212.5 -88t88.5 -213v-743h-41l-68 102q-42 -57 -105.5 -89.5t-137.5 -32.5h-31q-124 0 -212.5 88t-88.5 213z M219 1188l205 246h123l205 -246h-123l-144 164l-143 -164h-123zM246 274q0 -74 52 -126t126 -52h82q74 0 126 52t52 126v222h-260q-73 0 -125.5 -52.5t-52.5 -126.5v-43z" />
<glyph unicode="&#xe3;" d="M123 281v10q0 125 88.5 213t212.5 88h260v158q0 74 -52 126t-126 52h-72q-74 0 -126 -52t-52 -126v-37l-123 20v10q0 125 88.5 213t212.5 88h72q124 0 212.5 -88t88.5 -213v-743h-41l-68 102q-42 -57 -105.5 -89.5t-137.5 -32.5h-31q-124 0 -212.5 88t-88.5 213z M150 1221q0 94 46.5 153.5t135.5 59.5q40 0 79 -18t65.5 -39.5t60.5 -39.5t65 -18q41 0 63.5 31.5t22.5 83.5h94q0 -94 -47.5 -154.5t-134.5 -60.5q-43 0 -84.5 18t-68.5 39t-59.5 39t-59.5 18q-40 0 -62 -30.5t-22 -81.5h-94zM246 274q0 -74 52 -126t126 -52h82 q74 0 126 52t52 126v222h-260q-73 0 -125.5 -52.5t-52.5 -126.5v-43z" />
<glyph unicode="&#xe4;" d="M123 281v10q0 125 88.5 213t212.5 88h260v158q0 74 -52 126t-126 52h-72q-74 0 -126 -52t-52 -126v-37l-123 20v10q0 125 88.5 213t212.5 88h72q124 0 212.5 -88t88.5 -213v-743h-41l-68 102q-42 -57 -105.5 -89.5t-137.5 -32.5h-31q-124 0 -212.5 88t-88.5 213z M215 1231v153h154v-153h-154zM246 274q0 -74 52 -126t126 -52h82q74 0 126 52t52 126v222h-260q-73 0 -125.5 -52.5t-52.5 -126.5v-43zM602 1231v153h154v-153h-154z" />
<glyph unicode="&#xe5;" d="M123 281v10q0 125 88.5 213t212.5 88h260v158q0 74 -52 126t-126 52h-72q-74 0 -126 -52t-52 -126v-37l-123 20v10q0 125 88.5 213t212.5 88h72q124 0 212.5 -88t88.5 -213v-743h-41l-68 102q-42 -57 -105.5 -89.5t-137.5 -32.5h-31q-124 0 -212.5 88t-88.5 213zM246 274 q0 -74 52 -126t126 -52h82q74 0 126 52t52 126v222h-260q-73 0 -125.5 -52.5t-52.5 -126.5v-43zM258 1358q0 88 61.5 150.5t149.5 62.5t150.5 -62.5t62.5 -150.5t-62.5 -149.5t-150.5 -61.5t-149.5 61.5t-61.5 149.5zM360 1358q0 -44 32.5 -77.5t76.5 -33.5q45 0 78 33 t33 78q0 46 -32.5 79t-78.5 33q-44 0 -76.5 -33t-32.5 -79z" />
<glyph unicode="&#xe6;" horiz-adv-x="1490" d="M123 281v10q0 125 88.5 213t212.5 88h260v164q-3 71 -54.5 121.5t-123.5 50.5h-72q-74 0 -126 -52t-52 -126v-37l-123 20v10q0 125 88.5 213t212.5 88h72q71 0 134 -32t105 -88q42 56 104.5 88t135.5 32h82q125 0 213 -88t88 -213v-241h-561v-228q0 -74 52.5 -126 t125.5 -52h82q73 0 125.5 52t52.5 126v68l123 -20v-41q0 -125 -88 -213t-213 -88h-82q-84 0 -154.5 41.5t-109.5 111.5q-95 -153 -266 -153h-31q-124 0 -212.5 88t-88.5 213zM246 274q0 -74 52 -126t126 -52h82q74 0 126 52t52 126v222h-260q-73 0 -125.5 -52.5 t-52.5 -126.5v-43zM807 598h438v152q0 74 -52.5 126t-125.5 52h-82q-72 0 -124 -50.5t-54 -121.5v-158z" />
<glyph unicode="&#xe7;" d="M123 281v462q0 125 88.5 213t212.5 88h82q124 0 212.5 -88t88.5 -213v-41l-123 -20v68q0 74 -52 126t-126 52h-82q-74 0 -126 -52t-52 -126v-476q0 -74 52 -126t126 -52h82q74 0 126 52t52 126v68l123 -20v-41q0 -119 -83 -206t-202 -95l-47 -82q30 -12 62 -49.5 t32 -94.5q0 -75 -51.5 -120.5t-132.5 -45.5q-83 0 -147 64l47 72q12 -16 40 -31t62 -15q38 0 63 21.5t25 58.5q0 45 -34.5 70t-84.5 22l80 130h-12q-124 0 -212.5 88t-88.5 213z" />
<glyph unicode="&#xe8;" d="M123 281v462q0 125 88.5 213t212.5 88h82q124 0 212.5 -88t88.5 -213v-241h-561v-228q0 -74 52 -126t126 -52h82q74 0 126 52t52 126v68l123 -20v-41q0 -125 -88.5 -213t-212.5 -88h-82q-124 0 -212.5 88t-88.5 213zM240 1434h204l164 -246h-92zM246 598h438v152 q0 74 -52 126t-126 52h-82q-74 0 -126 -52t-52 -126v-152z" />
<glyph unicode="&#xe9;" d="M123 281v462q0 125 88.5 213t212.5 88h82q124 0 212.5 -88t88.5 -213v-241h-561v-228q0 -74 52 -126t126 -52h82q74 0 126 52t52 126v68l123 -20v-41q0 -125 -88.5 -213t-212.5 -88h-82q-124 0 -212.5 88t-88.5 213zM246 598h438v152q0 74 -52 126t-126 52h-82 q-74 0 -126 -52t-52 -126v-152zM322 1188l163 246h205l-276 -246h-92z" />
<glyph unicode="&#xea;" d="M123 281v462q0 125 88.5 213t212.5 88h82q124 0 212.5 -88t88.5 -213v-241h-561v-228q0 -74 52 -126t126 -52h82q74 0 126 52t52 126v68l123 -20v-41q0 -125 -88.5 -213t-212.5 -88h-82q-124 0 -212.5 88t-88.5 213zM219 1188l205 246h123l205 -246h-123l-144 164 l-143 -164h-123zM246 598h438v152q0 74 -52 126t-126 52h-82q-74 0 -126 -52t-52 -126v-152z" />
<glyph unicode="&#xeb;" d="M123 281v462q0 125 88.5 213t212.5 88h82q124 0 212.5 -88t88.5 -213v-241h-561v-228q0 -74 52 -126t126 -52h82q74 0 126 52t52 126v68l123 -20v-41q0 -125 -88.5 -213t-212.5 -88h-82q-124 0 -212.5 88t-88.5 213zM215 1231v153h154v-153h-154zM246 598h438v152 q0 74 -52 126t-126 52h-82q-74 0 -126 -52t-52 -126v-152zM602 1231v153h154v-153h-154z" />
<glyph unicode="&#xec;" horiz-adv-x="450" d="M0 1434h205l164 -246h-93zM164 0v1024h123v-1024h-123z" />
<glyph unicode="&#xed;" horiz-adv-x="450" d="M82 1188l164 246h205l-277 -246h-92zM164 0v1024h123v-1024h-123z" />
<glyph unicode="&#xee;" horiz-adv-x="450" d="M-41 1188l205 246h123l205 -246h-123l-144 164l-143 -164h-123zM164 0v1024h123v-1024h-123z" />
<glyph unicode="&#xef;" horiz-adv-x="450" d="M-45 1231v153h154v-153h-154zM164 0v1024h123v-1024h-123zM342 1231v153h154v-153h-154z" />
<glyph unicode="&#xf0;" d="M123 281v462q0 125 88.5 213t212.5 88h82q66 0 127 -28q-26 98 -90 190l-228 -65l-18 65l201 58q-73 87 -189 170h148q76 -50 151 -138l219 64l21 -66l-197 -57q156 -226 156 -494v-462q0 -125 -88.5 -213t-212.5 -88h-82q-124 0 -212.5 88t-88.5 213zM246 274 q0 -74 52 -126t126 -52h82q74 0 126 52t52 126v476q0 74 -52 126t-126 52h-82q-74 0 -126 -52t-52 -126v-476z" />
<glyph unicode="&#xf1;" d="M123 0v1024h41l67 -104q42 58 106 91t138 33h31q124 0 212.5 -88t88.5 -213v-743h-123v750q0 74 -52 126t-126 52h-82q-74 0 -126 -52t-52 -126v-750h-123zM150 1221q0 94 46.5 153.5t135.5 59.5q40 0 79 -18t65.5 -39.5t60.5 -39.5t65 -18q41 0 63.5 31.5t22.5 83.5h94 q0 -94 -47.5 -154.5t-134.5 -60.5q-43 0 -84.5 18t-68.5 39t-59.5 39t-59.5 18q-40 0 -62 -30.5t-22 -81.5h-94z" />
<glyph unicode="&#xf2;" d="M123 281v462q0 125 88.5 213t212.5 88h82q124 0 212.5 -88t88.5 -213v-462q0 -125 -88.5 -213t-212.5 -88h-82q-124 0 -212.5 88t-88.5 213zM240 1434h204l164 -246h-92zM246 274q0 -74 52 -126t126 -52h82q74 0 126 52t52 126v476q0 74 -52 126t-126 52h-82 q-74 0 -126 -52t-52 -126v-476z" />
<glyph unicode="&#xf3;" d="M123 281v462q0 125 88.5 213t212.5 88h82q124 0 212.5 -88t88.5 -213v-462q0 -125 -88.5 -213t-212.5 -88h-82q-124 0 -212.5 88t-88.5 213zM246 274q0 -74 52 -126t126 -52h82q74 0 126 52t52 126v476q0 74 -52 126t-126 52h-82q-74 0 -126 -52t-52 -126v-476zM322 1188 l163 246h205l-276 -246h-92z" />
<glyph unicode="&#xf4;" d="M123 281v462q0 125 88.5 213t212.5 88h82q124 0 212.5 -88t88.5 -213v-462q0 -125 -88.5 -213t-212.5 -88h-82q-124 0 -212.5 88t-88.5 213zM199 1188l204 246h123l205 -246h-123l-143 164l-143 -164h-123zM246 274q0 -74 52 -126t126 -52h82q74 0 126 52t52 126v476 q0 74 -52 126t-126 52h-82q-74 0 -126 -52t-52 -126v-476z" />
<glyph unicode="&#xf5;" d="M123 281v462q0 125 88.5 213t212.5 88h82q124 0 212.5 -88t88.5 -213v-462q0 -125 -88.5 -213t-212.5 -88h-82q-124 0 -212.5 88t-88.5 213zM150 1221q0 94 46.5 153.5t135.5 59.5q40 0 79 -18t65.5 -39.5t60.5 -39.5t65 -18q41 0 63.5 31.5t22.5 83.5h94 q0 -94 -47.5 -154.5t-134.5 -60.5q-43 0 -84.5 18t-68.5 39t-59.5 39t-59.5 18q-40 0 -62 -30.5t-22 -81.5h-94zM246 274q0 -74 52 -126t126 -52h82q74 0 126 52t52 126v476q0 74 -52 126t-126 52h-82q-74 0 -126 -52t-52 -126v-476z" />
<glyph unicode="&#xf6;" d="M123 281v462q0 125 88.5 213t212.5 88h82q124 0 212.5 -88t88.5 -213v-462q0 -125 -88.5 -213t-212.5 -88h-82q-124 0 -212.5 88t-88.5 213zM195 1231v153h153v-153h-153zM246 274q0 -74 52 -126t126 -52h82q74 0 126 52t52 126v476q0 74 -52 126t-126 52h-82 q-74 0 -126 -52t-52 -126v-476zM582 1231v153h153v-153h-153z" />
<glyph unicode="&#xf7;" horiz-adv-x="1187" d="M82 653v129h1024v-129h-1024zM455 336q0 57 41 98t98 41t98 -41t41 -98t-41 -98t-98 -41t-98 41t-41 98zM455 1100q0 57 41 98t98 41t98 -41t41 -98t-41 -98t-98 -41t-98 41t-41 98z" />
<glyph unicode="&#xf8;" horiz-adv-x="931" d="M61 -61l109 178q-47 71 -47 164v462q0 125 88.5 213t212.5 88h82q105 0 188 -67l68 108h108l-110 -180q47 -76 47 -162v-462q0 -125 -88.5 -213t-212.5 -88h-82q-107 0 -188 65l-66 -106h-109zM246 274q0 -20 2 -30l385 630q-54 54 -127 54h-82q-74 0 -126 -52t-52 -126 v-476zM297 147q51 -51 127 -51h82q74 0 126 52t52 126v476q0 4 -1 13t-1 13z" />
<glyph unicode="&#xf9;" d="M123 281v743h123v-750q0 -74 52 -126t126 -52h82q74 0 126 52t52 126v750h123v-1024h-41l-68 104q-42 -58 -105.5 -91t-137.5 -33h-31q-124 0 -212.5 88t-88.5 213zM199 1434h204l164 -246h-92z" />
<glyph unicode="&#xfa;" d="M123 281v743h123v-750q0 -74 52 -126t126 -52h82q74 0 126 52t52 126v750h123v-1024h-41l-68 104q-42 -58 -105.5 -91t-137.5 -33h-31q-124 0 -212.5 88t-88.5 213zM362 1188l164 246h205l-276 -246h-93z" />
<glyph unicode="&#xfb;" d="M123 281v743h123v-750q0 -74 52 -126t126 -52h82q74 0 126 52t52 126v750h123v-1024h-41l-68 104q-42 -58 -105.5 -91t-137.5 -33h-31q-124 0 -212.5 88t-88.5 213zM199 1188l204 246h123l205 -246h-123l-143 164l-143 -164h-123z" />
<glyph unicode="&#xfc;" d="M123 281v743h123v-750q0 -74 52 -126t126 -52h82q74 0 126 52t52 126v750h123v-1024h-41l-68 104q-42 -58 -105.5 -91t-137.5 -33h-31q-124 0 -212.5 88t-88.5 213zM195 1231v153h153v-153h-153zM582 1231v153h153v-153h-153z" />
<glyph unicode="&#xfd;" horiz-adv-x="806" d="M20 1024h123l267 -776l4 -53l4 53l266 776h123l-518 -1434h-119l182 498zM301 1188l164 246h205l-277 -246h-92z" />
<glyph unicode="&#xfe;" horiz-adv-x="950" d="M143 -410v1844h123v-496q42 50 102 78t128 28h30q124 0 212.5 -88t88.5 -213v-462q0 -125 -88.5 -213t-212.5 -88h-30q-68 0 -128 28t-102 78v-496h-123zM266 274q0 -74 52 -126t126 -52h82q74 0 126.5 52.5t52.5 125.5v476q0 73 -52.5 125.5t-126.5 52.5h-82 q-74 0 -126 -52t-52 -126v-476z" />
<glyph unicode="&#xff;" horiz-adv-x="806" d="M20 1024h123l267 -776l4 -53l4 53l266 776h123l-518 -1434h-119l182 498zM154 1231v153h153v-153h-153zM541 1231v153h153v-153h-153z" />
<glyph unicode="&#x152;" horiz-adv-x="1607" d="M143 332v770q0 146 103.5 249t249.5 103h102q55 0 117 -20h811v-123h-645q69 -95 69 -209v-324h447v-123h-447v-323q0 -118 -69 -209h645v-123h-811q-62 -20 -117 -20h-102q-146 0 -249.5 103t-103.5 249zM272 332q0 -95 67.5 -162.5t162.5 -67.5h90q95 0 162 67.5 t67 162.5v770q0 95 -67 162t-162 67h-90q-95 0 -162.5 -67t-67.5 -162v-770z" />
<glyph unicode="&#x153;" horiz-adv-x="1492" d="M123 281v462q0 125 88.5 213t212.5 88h82q72 0 134.5 -32.5t104.5 -87.5q42 55 106 87.5t136 32.5h82q125 0 213 -88t88 -213v-241h-561v-228q0 -74 52.5 -126t125.5 -52h82q73 0 125.5 52t52.5 126v68l123 -20v-41q0 -125 -88 -213t-213 -88h-82q-73 0 -136.5 32 t-105.5 88q-42 -56 -104.5 -88t-134.5 -32h-82q-124 0 -212.5 88t-88.5 213zM246 274q0 -74 52 -126t126 -52h82q74 0 126 52t52 126v476q0 74 -52 126t-126 52h-82q-74 0 -126 -52t-52 -126v-476zM809 598h438v152q0 74 -52.5 126t-125.5 52h-82q-73 0 -125.5 -52 t-52.5 -126v-152z" />
<glyph unicode="&#x178;" horiz-adv-x="950" d="M41 1434h139l295 -596l295 596h139l-368 -748v-686h-129v684zM205 1640v154h153v-154h-153zM592 1640v154h153v-154h-153z" />
<glyph unicode="&#x2c6;" horiz-adv-x="942" d="M205 1188l205 246h122l205 -246h-123l-143 164l-143 -164h-123z" />
<glyph unicode="&#x2dc;" horiz-adv-x="1042" d="M205 1221q0 94 46.5 153.5t135.5 59.5q40 0 79 -18t65.5 -39.5t60.5 -39.5t65 -18q41 0 63.5 31.5t22.5 83.5h95q0 -94 -48 -154.5t-135 -60.5q-43 0 -84.5 18t-68.5 39t-59.5 39t-59.5 18q-40 0 -62 -30.5t-22 -81.5h-94z" />
<glyph unicode="&#x2000;" horiz-adv-x="921" />
<glyph unicode="&#x2001;" horiz-adv-x="1843" />
<glyph unicode="&#x2002;" horiz-adv-x="921" />
<glyph unicode="&#x2003;" horiz-adv-x="1843" />
<glyph unicode="&#x2004;" horiz-adv-x="614" />
<glyph unicode="&#x2005;" horiz-adv-x="460" />
<glyph unicode="&#x2006;" horiz-adv-x="307" />
<glyph unicode="&#x2007;" horiz-adv-x="307" />
<glyph unicode="&#x2008;" horiz-adv-x="230" />
<glyph unicode="&#x2009;" horiz-adv-x="368" />
<glyph unicode="&#x200a;" horiz-adv-x="102" />
<glyph unicode="&#x2010;" horiz-adv-x="587" d="M102 627v116h383v-116h-383z" />
<glyph unicode="&#x2011;" horiz-adv-x="587" d="M102 627v116h383v-116h-383z" />
<glyph unicode="&#x2012;" horiz-adv-x="587" d="M102 627v116h383v-116h-383z" />
<glyph unicode="&#x2013;" horiz-adv-x="1126" d="M102 627v116h922v-116h-922z" />
<glyph unicode="&#x2014;" horiz-adv-x="2048" d="M102 627v116h1844v-116h-1844z" />
<glyph unicode="&#x2018;" horiz-adv-x="399" d="M143 993l103 441h51v-441h-154z" />
<glyph unicode="&#x2019;" horiz-adv-x="399" d="M143 993v441h154l-102 -441h-52z" />
<glyph unicode="&#x201a;" horiz-adv-x="440" d="M143 154h154l-102 -441h-52v441z" />
<glyph unicode="&#x201c;" horiz-adv-x="645" d="M102 993l103 441h51v-441h-154zM348 993l103 441h51v-441h-154z" />
<glyph unicode="&#x201d;" horiz-adv-x="645" d="M143 993v441h154l-102 -441h-52zM389 993v441h154l-103 -441h-51z" />
<glyph unicode="&#x201e;" horiz-adv-x="645" d="M143 154h154l-102 -441h-52v441zM389 154h154l-103 -441h-51v441z" />
<glyph unicode="&#x2022;" horiz-adv-x="958" d="M123 709q0 148 104 252t252 104t252.5 -104t104.5 -252t-104.5 -252.5t-252.5 -104.5t-252 104.5t-104 252.5z" />
<glyph unicode="&#x2026;" horiz-adv-x="1484" d="M143 0v154h154v-154h-154zM666 0v154h153v-154h-153zM1188 0v154h153v-154h-153z" />
<glyph unicode="&#x202f;" horiz-adv-x="368" />
<glyph unicode="&#x2039;" horiz-adv-x="622" d="M82 467l377 383l41 -41l-250 -342l250 -342l-41 -41z" />
<glyph unicode="&#x203a;" horiz-adv-x="622" d="M123 125l250 342l-250 342l41 41l377 -383l-377 -383z" />
<glyph unicode="&#x205f;" horiz-adv-x="460" />
<glyph unicode="&#x20ac;" horiz-adv-x="1155" d="M82 553v102h143v123h-143v103h143v221q0 146 103.5 249t249.5 103h102q146 0 249 -103t103 -249v-37l-129 -21v58q0 95 -67 162t-162 67h-90q-95 0 -162.5 -67t-67.5 -162v-221h473l-59 -103h-414v-123h342l-59 -102h-283v-221q0 -95 67.5 -162.5t162.5 -67.5h90 q95 0 162 67.5t67 162.5v57l129 -20v-37q0 -146 -103 -249t-249 -103h-102q-146 0 -249.5 103t-103.5 249v221h-143z" />
<glyph unicode="&#x2122;" horiz-adv-x="1474" d="M82 1339v95h516v-95h-205v-581h-106v581h-205zM696 758v676h64l254 -519l256 519h61v-676h-104v379l-185 -379h-55l-184 377v-377h-107z" />
<glyph unicode="&#x25fc;" horiz-adv-x="1024" d="M0 0v1024h1024v-1024h-1024z" />
<glyph unicode="&#xfb01;" horiz-adv-x="1038" d="M20 907v117h185v139q0 113 79 192t191 79h113v-117h-113q-61 0 -104 -43t-43 -105v-145h239v-117h-239v-907h-123v907h-185zM741 1270v164h144v-164h-144zM752 0v1024h122v-1024h-122z" />
<glyph unicode="&#xfb02;" horiz-adv-x="1038" d="M20 907v117h185v139q0 113 79 192t191 79h113v-117h-113q-61 0 -104 -43t-43 -105v-145h239v-117h-239v-907h-123v907h-185zM752 0v1434h122v-1434h-122z" />
</font>
</defs>
</svg>
