<?xml version="1.0" standalone="no"?>
<!DOCTYPE svg PUBLIC "-//W3C//DTD SVG 1.1//EN" "http://www.w3.org/Graphics/SVG/1.1/DTD/svg11.dtd" >
<svg xmlns="http://www.w3.org/2000/svg">
<metadata></metadata>
<defs>
<font id="timberwolf_extra-expXexpanded" horiz-adv-x="929" >
<font-face units-per-em="2048" ascent="1638" descent="-410" />
<missing-glyph horiz-adv-x="690" />
<glyph horiz-adv-x="0" />
<glyph unicode="&#xd;" horiz-adv-x="1474" />
<glyph unicode=" "  horiz-adv-x="690" />
<glyph unicode="&#x09;" horiz-adv-x="690" />
<glyph unicode="&#xa0;" horiz-adv-x="690" />
<glyph unicode="!" horiz-adv-x="432" d="M35 0v154h360v-154h-360zM35 465v1327h362v-1327h-362z" />
<glyph unicode="&#x22;" horiz-adv-x="786" d="M35 1640v154h334v-281l-115 -88l-107 82v133h-112zM418 1640v154h334v-281l-115 -88l-107 82v133h-112z" />
<glyph unicode="#" horiz-adv-x="1366" d="M35 1016l112 -78h103v-899l-27 -39h420l-29 39v899h148v-899l-27 -39h418l-31 39v899h92l115 72l-123 84h-84v151h92l115 72l-123 84h-84v352l25 39h-412l27 -39v-352h-148v352l25 39h-416l27 -39v-352h-105q-20 -8 -55 -35t-55 -43l112 -78h103v-151h-105 q-20 -8 -55 -35t-55 -43zM614 1094v151h148v-151h-148z" />
<glyph unicode="$" horiz-adv-x="897" d="M35 1110v432l55 41h326v209h209v-209h235v-266l-201 133h-34v-248h233v-729l-110 -137h-123v-336h-209v336h-168l-207 594q0 4 -1 29.5t-1 37.5l377 -450h121v512h-443zM344 1225q0 -16 10.5 -18.5t34.5 -4.5h27v248h-19q-20 0 -36.5 -4t-16.5 -16v-205z" />
<glyph unicode="%" horiz-adv-x="1988" d="M35 967h764v825h-764v-825zM342 1124v512q2 16 16.5 18.5t36.5 2.5h19h28q25 0 37.5 -2t12.5 -19v-512q-2 -16 -15.5 -18t-36.5 -2h-47q-29 0 -40 2t-11 18zM530 0h424l-30 39l503 1714l31 39h-424l37 -37l-510 -1716zM1192 0h760v825h-760v-825zM1495 158v512 q4 16 16.5 18t36.5 2h17h32q29 0 40.5 -2t11.5 -18v-512q-2 -16 -24.5 -19.5t-47.5 -3.5h-14q-23 0 -45.5 3t-22.5 20z" />
<glyph unicode="&#x26;" horiz-adv-x="960" d="M35 1255v537h596l-29 -41v-268l-184 174l-74 -21v-352q0 -20 45 -20h537v-148h-189v-1067l2 -10l27 -39h-727v1130l51 56zM344 156q6 -16 20.5 -18.5t43.5 -2.5h24q41 0 45 10v969l-74 2q-25 0 -42 -2t-17 -18v-940z" />
<glyph unicode="'" horiz-adv-x="403" d="M35 1640v154h334v-281l-115 -88l-107 82v133h-112z" />
<glyph unicode="(" horiz-adv-x="772" d="M35 1790l28 -39v-1751h674l-168 156h-168v1476h177l159 158h-702z" />
<glyph unicode=")" horiz-adv-x="772" d="M35 0l170 156h166v1476h-174l-162 158h702l-28 -39v-1751h-674z" />
<glyph unicode="*" horiz-adv-x="530" d="M35 1661l51 133l119 -55l-23 125h166l-14 -125l110 53l52 -135l-131 -23l88 -90l-131 -88l-62 109l-55 -109l-131 92l90 86z" />
<glyph unicode="+" horiz-adv-x="624" d="M35 1114h160v-59l110 -82l113 88v53h172v150h-172v51q-8 14 -45 38.5t-66 37.5l-112 -78v-49h-160v-150z" />
<glyph unicode="," horiz-adv-x="403" d="M35 0h112v-133l107 -82l115 88v281h-334v-154z" />
<glyph unicode="-" horiz-adv-x="675" d="M35 1167l112 -77h373l119 75l-125 80h-367q-10 -4 -24 -13t-30.5 -20.5t-32 -23.5t-25.5 -21z" />
<glyph unicode="." horiz-adv-x="407" d="M35 0v154h336v-154h-336z" />
<glyph unicode="/" horiz-adv-x="997" d="M35 0l28 39l512 1716l-34 37h420l-29 -39l-504 -1714l29 -39h-422z" />
<glyph unicode="0" d="M35 0h860v1790h-860v-1790zM371 156v1478q0 16 17.5 18.5t41.5 2.5h41h41q23 0 40 -2t17 -19v-1478q0 -16 -17 -18.5t-40 -2.5h-82q-25 0 -42 2t-17 19z" />
<glyph unicode="1" horiz-adv-x="468" d="M35 0l28 39v1714l-28 39h309l57 -37v-1716l31 -39h-397z" />
<glyph unicode="2" horiz-adv-x="897" d="M35 0h825v330l-201 -197h-264q-20 0 -36.5 3t-16.5 18v352q0 16 16.5 18t38.5 4h459v1125l-108 137h-500l-209 -989v-68l438 922h64v-983h-451l-55 -51v-621z" />
<glyph unicode="3" horiz-adv-x="860" d="M35 0h788v1130l-53 56l55 69v537h-790l28 -41v-268l320 157q16 10 27.5 13.5t33.5 3.5l74 -21v-352q0 -16 -12 -18t-37 -2h-399v-148h399q25 0 37 -2t12 -18v-940q-2 -16 -14 -18.5t-37 -2.5h-98q-33 0 -47 10l-252 572v-668l-7 -10z" />
<glyph unicode="4" horiz-adv-x="997" d="M35 1792h373l-35 -39v-489h200v489l-28 39h416l-29 -39v-1714l29 -39h-420l28 39v1079h-506v635z" />
<glyph unicode="5" horiz-adv-x="899" d="M35 1169l59 -51h447v-983h-60l-442 922q0 -12 1 -38t1 -30l209 -989h500l108 137v1125h-463q-23 2 -37 4t-14 18v352q0 12 16.5 16.5t36.5 4.5h262l205 -199v332h-829v-621z" />
<glyph unicode="6" horiz-adv-x="897" d="M35 1790l28 -39v-1751h797v1266h-459v366q23 4 53.5 5t47.5 1q23 0 24 -2q8 -4 17.5 -6t25.5 -16l168 -174v350h-702zM401 156v870h150v-870h-150z" />
<glyph unicode="7" horiz-adv-x="897" d="M35 1458l203 199h262q20 0 35.5 -4t15.5 -17v-352q0 -16 -13.5 -18t-35.5 -4h-414v-1199l-43 -63h395l-37 63v1055h404l53 51v621h-825v-332z" />
<glyph unicode="8" horiz-adv-x="778" d="M35 1255v537h706v-537l-53 -69l51 -56v-1130h-700v1130l51 56zM348 135q6 -2 15.5 -5t25.5 -7l41 12v979h-82v-979zM348 1264h84v372l-2 17h-82v-389z" />
<glyph unicode="9" horiz-adv-x="968" d="M35 1147l59 -29h447v-1079l-27 -39h418l-27 39v1714l27 39h-897v-645zM344 1284v352q0 16 17.5 18.5t41.5 2.5h39h41q25 0 41.5 -2t16.5 -19v-352q0 -16 -16.5 -18t-41.5 -2h-80q-25 0 -42 2t-17 18z" />
<glyph unicode=":" horiz-adv-x="407" d="M35 0v154h336v-154h-336zM35 1118v154h336v-154h-336z" />
<glyph unicode=";" horiz-adv-x="407" d="M35 0h112v-133l107 -82l115 88v281h-334v-154zM35 1118h336v154h-336v-154z" />
<glyph unicode="&#x3c;" horiz-adv-x="616" d="M35 1090h28l510 -1072l-135 1080h103v653l39 39h-357l37 -39v-487z" />
<glyph unicode="=" horiz-adv-x="673" d="M35 1016q20 16 55 42.5t55 35.5h367l125 -80l-119 -76h-371zM35 1323q20 16 55 43t55 35h367l125 -80l-119 -76h-371z" />
<glyph unicode="&#x3e;" horiz-adv-x="616" d="M35 1790h358l-37 -39v-487l224 -174h-29l-506 -1072l135 1080h-104v653z" />
<glyph unicode="?" horiz-adv-x="897" d="M35 1458l203 199h262q20 0 35.5 -4t15.5 -17v-352q0 -16 -8 -18t-37 -4h-418v-797h320v653h399l53 51v621h-825v-332zM88 0h320v154h-320v-154z" />
<glyph unicode="@" horiz-adv-x="1712" d="M35 1790l28 -39v-1751h1170l-168 156h-664v1476h910v-921h-74v667h-766v-825h1178v1198l30 39h-1644zM778 711v512q4 16 16 18t37 2h50q23 0 36 -2t13 -18v-512q-4 -16 -15.5 -18.5t-40.5 -2.5h-47q-23 0 -36 2t-13 19z" />
<glyph unicode="A" horiz-adv-x="958" d="M35 0l35 39v1753h827v-1753l27 -39h-404l31 39v1051h-150v-1053l31 -37h-397zM401 1245h150v393h-150v-393z" />
<glyph unicode="B" horiz-adv-x="937" d="M35 0l26 39l2 10v1704l-28 39h866v-537l-55 -69l53 -56v-1130h-864zM397 147q14 -12 47 -12h82q23 0 44.5 3t23.5 20v938q0 16 -14.5 18t-42.5 2h-70q-29 0 -47.5 -3t-22.5 -13v-953zM397 1284q0 -16 18.5 -18t41.5 -2h80q29 0 43 2t14 18v352q0 16 -14.5 18.5t-42.5 2.5 h-9h-71q-23 0 -41.5 -2t-18.5 -19v-352z" />
<glyph unicode="C" horiz-adv-x="772" d="M35 1790h702v-350l-168 174q-16 14 -25 16t-18 6q-2 2 -24 2q-16 0 -47 -1t-54 -5v-1476h168l168 155v-311h-674v1751z" />
<glyph unicode="D" horiz-adv-x="880" d="M35 0h618l191 154v1638h-803l31 -41v-1708zM381 158v1476h156v-1413l-68 -63h-88z" />
<glyph unicode="E" horiz-adv-x="856" d="M35 1167l112 -77v-1090h674v311l-168 -155l-137 12v934l162 57q-6 4 -28.5 14.5t-50.5 23.5t-52.5 25.5t-32.5 22.5v381q23 4 40 8t34 4q16 0 18 -2q14 -4 23.5 -6t23.5 -16l168 -174v350h-700l26 -39v-526q-20 -6 -56 -23.5t-56 -34.5z" />
<glyph unicode="F" horiz-adv-x="856" d="M35 1167l112 -77v-1051l-32 -39h434l-35 39v1051l164 77q-4 4 -24.5 15.5t-47 25t-52.5 24.5t-40 13v381q23 4 40 8t34 4q16 0 18 -2q14 -4 23.5 -6t23.5 -16l168 -174v350h-700l26 -39v-526q-20 -6 -56 -23.5t-56 -34.5z" />
<glyph unicode="G" horiz-adv-x="897" d="M35 1790l28 -39v-1751h797v1264h-385v-310l76 72v-870h-150v1476q23 4 53.5 5t47.5 1q23 0 24 -2q8 -4 17.5 -6t25.5 -16l168 -174v350h-702z" />
<glyph unicode="H" horiz-adv-x="968" d="M35 0l28 39v1714l-28 39h393l-25 -39v-489h166v491l-37 37h400l-27 -39v-1714l27 -39h-400l31 39v1079h-155v-1079l24 -39h-397z" />
<glyph unicode="I" horiz-adv-x="491" d="M35 0l28 39v1714l-28 39h418l-25 -39v-1714l29 -39h-422z" />
<glyph unicode="J" horiz-adv-x="772" d="M35 0h676v1751l26 39h-393l29 -39v-1608q-47 -12 -74 -12l-4 1t-16 3q-10 4 -19.5 5t-26.5 16l-198 174v-330z" />
<glyph unicode="K" horiz-adv-x="978" d="M35 0h393l-27 39v485q0 4 9.5 12.5t17.5 8.5q2 0 34 1t52 1q10 0 30.5 -1t33.5 -1h16q8 0 19.5 -8.5t11.5 -12.5v-485l-35 -39h354l-39 39v653h-104l131 942q0 4 1 31t1 37v70l-506 -1072h-27v1051l27 39h-393l28 -39v-1712z" />
<glyph unicode="L" horiz-adv-x="772" d="M35 0l28 39v1712l-28 39h393l-27 -39v-1608q39 -12 70 -12q8 0 11 1t14 3q8 4 18 5t27 16l196 174v-330h-702z" />
<glyph unicode="M" horiz-adv-x="1380" d="M35 0l188 1595v195h309v-195l170 -718l193 718v195h311v-195l137 -1595h-356q0 88 -6 196.5t-16.5 218t-21.5 212t-23 180.5l-218 -846l-225 836q-67 -387 -67 -785v-12h-375z" />
<glyph unicode="N" horiz-adv-x="937" d="M35 0h395l-29 39v1243l140 -496v-747l-27 -39h387l-29 39v1714l29 39h-387l35 -37v-569l-148 567l25 39h-391l28 -39v-1714z" />
<glyph unicode="O" horiz-adv-x="882" d="M35 528v1262h811v-1262h-811zM193 0v147h491v-147h-491zM342 686q0 -16 17.5 -18t41.5 -2h80q25 0 42.5 2t17.5 18v948q0 16 -16.5 18.5t-41.5 2.5h-41h-39q-25 0 -42 -2t-19 -19v-948z" />
<glyph unicode="P" horiz-adv-x="968" d="M35 0l28 39v1714l-28 39h897v-645l-58 -29h-446v-1079l29 -39h-422zM428 1284q0 -16 17.5 -18t41.5 -2h78q29 0 44.5 2t15.5 18v352q0 16 -15.5 18.5t-44.5 2.5h-37h-41q-25 0 -42 -2t-17 -19v-352z" />
<glyph unicode="Q" horiz-adv-x="1015" d="M35 0v1790h848v-1290l96 -500h-944zM365 156q0 -16 14 -18.5t43 -2.5h70q29 0 46 2t17 17v452l-127 463h129v565q0 16 -16.5 18.5t-38.5 2.5h-72h-8q-29 0 -43 -2t-14 -19v-1478z" />
<glyph unicode="R" horiz-adv-x="970" d="M35 0l28 39v1712l-28 39h870v-690l-82 -2v-144l109 -798q0 -4 1 -31t1 -37v-70l-506 1072h-27v-1051l27 -39h-393zM401 1264q0 -4 9.5 -11.5t17.5 -7.5q2 0 34 -1t52 -1q10 0 30.5 1t33.5 1h16q8 0 19.5 7.5t11.5 11.5v370q0 4 -11.5 11.5t-19.5 7.5h-16q-12 0 -33 1 t-31 1q-20 0 -52 -1t-34 -1q-8 0 -17.5 -7.5t-9.5 -11.5v-370z" />
<glyph unicode="S" horiz-adv-x="897" d="M35 0v330l203 -197h262q20 0 35.5 3t15.5 18v352q0 16 -15.5 18t-39.5 4h-457v1125l108 137h502l207 -989q0 -4 1 -30t1 -38l-440 922h-62v-983h451l53 -51v-621h-825z" />
<glyph unicode="T" horiz-adv-x="825" d="M35 1458l211 174v-1595l-41 -37h418l-33 43v1595l201 -180v332h-756v-332z" />
<glyph unicode="U" horiz-adv-x="960" d="M35 1792h397l-24 -39v-1599h149v1601l-37 37h406l-29 -39v-1753h-834v1753z" />
<glyph unicode="V" horiz-adv-x="761" d="M35 1419q0 94 19.5 193.5t64.5 216.5l223 -836q16 80 19.5 159t3.5 161v477h360l-225 -1790h-172l-226 975q-23 111 -45 219.5t-22 224.5z" />
<glyph unicode="W" horiz-adv-x="1380" d="M35 1790h358q0 -90 6.5 -198.5t16.5 -218t22.5 -212t24.5 -178.5l217 846l225 -836q35 199 51.5 395.5t16.5 401.5h370l-188 -1595v-195h-305v195l-170 720l-193 -720v-195h-311v195z" />
<glyph unicode="X" horiz-adv-x="978" d="M35 1790l39 -39v-512l106 -141l-133 -942q0 -4 -1 -31t-1 -37v-70l506 1072h29v-1051l-29 -39h393l-26 39v1055l-82 151l77 432q0 4 2.5 39t2.5 96l-381 -567h-154q-8 0 -17.5 7.5t-9.5 11.5v487l37 39h-358z" />
<glyph unicode="Y" d="M35 1792l51 -45v-651h176v-142l-110 -798q0 -4 -1 -31t-1 -37v-88l509 1090h209v661l27 39h-354l32 -43v-483q0 -4 -10 -11.5t-18 -7.5q-2 0 -25.5 -1t-44.5 -1q-10 0 -30.5 1t-34.5 1h-17q-8 0 -18 7.5t-10 11.5v483l43 45h-373z" />
<glyph unicode="Z" horiz-adv-x="897" d="M35 1458l203 199h262q20 0 35.5 -4t15.5 -17v-352q0 -16 -15.5 -18t-39.5 -4h-457v-1125l108 -137h502l207 989q0 4 1 29.5t1 38.5l-440 -922h-62v983h451l53 51v621h-825v-332z" />
<glyph unicode="[" horiz-adv-x="772" d="M35 1790l28 -39v-1751h674l-168 156h-168v1476h177l159 158h-702z" />
<glyph unicode="\" horiz-adv-x="997" d="M35 1792l28 -39l506 -1714l-28 -39h420l-29 39l-506 1716l31 37h-422z" />
<glyph unicode="]" horiz-adv-x="772" d="M35 0l170 156h166v1476h-174l-162 158h702l-28 -39v-1751h-674z" />
<glyph unicode="^" horiz-adv-x="761" d="M35 371q0 -94 19.5 -193.5t64.5 -216.5l2 -10l209 844q16 -86 21 -163t14 -159v-473h360l-248 1790h-133l-223 -975q-29 -111 -57.5 -219.5t-28.5 -224.5z" />
<glyph unicode="_" horiz-adv-x="972" d="M35 0h903l-27 39h-848z" />
<glyph unicode="`" horiz-adv-x="446" d="M35 1792h244l135 -156h-240z" />
<glyph unicode="a" horiz-adv-x="761" d="M35 371q0 -94 19.5 -193.5t64.5 -216.5l86 334h151v-295h369l-248 1790h-133l-223 -975q-29 -111 -57.5 -219.5t-28.5 -224.5zM246 451l84 344q16 -82 20 -161t4 -161v-22h-108z" />
<glyph unicode="b" horiz-adv-x="937" d="M35 0l26 39l2 10v1704l-28 39h866v-537l-55 -69l53 -56v-1130h-864zM397 147q14 -12 47 -12h82q23 0 44.5 3t23.5 20v938q0 16 -14.5 18t-42.5 2h-70q-29 0 -47.5 -3t-22.5 -13v-953zM397 1284q0 -16 18.5 -18t41.5 -2h80q29 0 43 2t14 18v352q0 16 -14.5 18.5t-42.5 2.5 h-9h-71q-23 0 -41.5 -2t-18.5 -19v-352z" />
<glyph unicode="c" horiz-adv-x="772" d="M35 1790h702v-350l-168 174q-16 14 -25 16t-18 6q-2 2 -24 2q-16 0 -47 -1t-54 -5v-1476h168l168 155v-311h-674v1751z" />
<glyph unicode="d" horiz-adv-x="880" d="M35 0h618l191 154v1638h-803l31 -41v-1708zM381 158v1476h156v-1413l-68 -63h-88z" />
<glyph unicode="e" horiz-adv-x="856" d="M35 1167l112 -77v-1090h674v311l-168 -155h-123v931l132 76q-10 6 -30 16.5t-42.5 21.5t-43 22.5t-32.5 21.5v381q23 4 40 8t34 4q16 0 18 -2q14 -4 23.5 -6t23.5 -16l168 -174v350h-700l26 -39v-526q-20 -6 -56 -23.5t-56 -34.5z" />
<glyph unicode="f" horiz-adv-x="856" d="M35 1167l112 -77v-1051l-32 -39h473l-60 37v1050l146 76q-4 4 -24.5 16.5t-45 26t-50.5 25.5t-40 14v381q23 4 40 8t34 4q16 0 18 -2q14 -4 23.5 -6t23.5 -16l168 -174v350h-700l26 -39v-526q-20 -6 -56 -23.5t-56 -34.5z" />
<glyph unicode="g" horiz-adv-x="897" d="M35 1790h702v-350l-168 174q-16 14 -25 16t-18 6q-2 2 -24 2q-16 0 -47 -1t-54 -5v-1476h150v870l-76 -72v310h385v-1264h-797v1751z" />
<glyph unicode="h" horiz-adv-x="968" d="M35 0l28 39v1714l-28 39h393l-25 -39v-489h166v491l-37 37h400l-27 -39v-1714l27 -39h-400l31 39v1079h-155v-1079l24 -39h-397z" />
<glyph unicode="i" horiz-adv-x="477" d="M35 0l28 39v1714l-28 39h403l-24 -39v-1714l28 -39h-407z" />
<glyph unicode="j" horiz-adv-x="772" d="M35 0h676v1751l26 39h-393l29 -39v-1608q-47 -12 -74 -12l-4 1t-16 3q-10 4 -19.5 5t-26.5 16l-198 174v-330z" />
<glyph unicode="k" horiz-adv-x="978" d="M35 0h393l-27 39v1051h27l506 -1072v70q0 10 -1 37t-1 31l-131 942h104v653l39 39h-354l35 -39v-487q0 -4 -11.5 -11.5t-19.5 -7.5h-16q-12 0 -33 -1t-31 -1q-20 0 -52 1t-34 1q-8 0 -17.5 7.5t-9.5 11.5v487l27 39h-393l28 -39v-1712z" />
<glyph unicode="l" horiz-adv-x="772" d="M35 0l28 39v1712l-28 39h393l-27 -39v-1608q39 -12 70 -12q8 0 11 1t14 3q8 4 18 5t27 16l196 174v-330h-702z" />
<glyph unicode="m" horiz-adv-x="1380" d="M35 0l188 1595v195h309v-195l170 -718l193 718v195h311v-195l137 -1595h-356q0 88 -6 196.5t-16.5 218t-21.5 212t-23 180.5l-218 -846l-225 836q-67 -387 -67 -785v-12h-375z" />
<glyph unicode="n" horiz-adv-x="944" d="M35 0l28 39v1714l-28 39h393l-25 -39l148 -526v528l-35 37h393l-28 -39v-1714l28 -39h-393l27 39v747l-140 441v-1188l29 -39h-397z" />
<glyph unicode="o" d="M35 0v1790h860v-1790h-860zM371 156q0 -16 11 -18.5t40 -2.5h96q25 0 38 2t13 19v1478q0 16 -13 18.5t-38 2.5h-47h-49q-29 0 -40 -2t-11 -19v-1478z" />
<glyph unicode="p" horiz-adv-x="968" d="M35 0h422l-29 39v1079h446l58 29v645h-897l28 -39v-1714zM428 1284v352q0 16 12.5 18.5t36.5 2.5h51h47q23 0 36.5 -2t13.5 -19v-352q0 -16 -13.5 -18t-36.5 -2h-98q-25 0 -37 2t-12 18z" />
<glyph unicode="q" horiz-adv-x="1015" d="M35 0h944l-96 500v1290h-848v-1790zM365 156v1478q0 16 12 18.5t37 2.5h16h82q23 0 34 -2t11 -19v-565h-129l127 -463v-452q0 -14 -17.5 -16.5t-45.5 -2.5h-78q-25 0 -37 2t-12 19z" />
<glyph unicode="r" horiz-adv-x="970" d="M35 0l28 39v1712l-28 39h870v-690l-82 -2v-144l109 -798q0 -4 1 -31t1 -37v-70l-506 1072h-27v-1051l27 -39h-393zM401 1264q0 -4 9.5 -11.5t17.5 -7.5q2 0 34 -1t52 -1q10 0 30.5 1t33.5 1h16q8 0 19.5 7.5t11.5 11.5v370q0 4 -11.5 11.5t-19.5 7.5h-16q-12 0 -33 1 t-31 1q-20 0 -52 -1t-34 -1q-8 0 -17.5 -7.5t-9.5 -11.5v-370z" />
<glyph unicode="s" horiz-adv-x="899" d="M35 1169v582l55 41h774v-332l-205 199h-262q-20 0 -36.5 -4t-16.5 -17v-354q0 -16 10.5 -18t34.5 -4h469v-1125l-108 -137h-500l-209 989q0 4 -1 29.5t-1 38.5l442 -922h60v983h-447z" />
<glyph unicode="t" horiz-adv-x="825" d="M35 1458l211 174v-1595l-41 -37h418l-33 43v1595l201 -180v332h-756v-332z" />
<glyph unicode="u" horiz-adv-x="960" d="M35 1792h397l-24 -39v-1599h149v1601l-37 37h406l-29 -39v-1753h-834v1753z" />
<glyph unicode="v" horiz-adv-x="761" d="M35 1419q0 -117 28.5 -225.5t57.5 -218.5l223 -975h133l248 1790h-360v-473q-8 -82 -13.5 -159t-21.5 -163l-211 834q-45 -117 -64.5 -216.5t-19.5 -193.5z" />
<glyph unicode="w" horiz-adv-x="1380" d="M35 1790h358q0 -90 6.5 -198.5t16.5 -218t22.5 -212t24.5 -178.5l217 846l225 -836q35 199 51.5 395.5t16.5 401.5h370l-188 -1595v-195h-305v195l-170 720l-193 -720v-195h-311v195z" />
<glyph unicode="x" horiz-adv-x="978" d="M35 1790l39 -39v-512l106 -141l-133 -942q0 -4 -1 -31t-1 -37v-70l506 1072h29v-1051l-29 -39h393l-26 39v1055l-82 151l77 432q0 4 2.5 39t2.5 96l-381 -567h-154q-8 0 -17.5 7.5t-9.5 11.5v487l37 39h-358z" />
<glyph unicode="y" d="M35 1792l51 -45v-651h176v-142l-110 -798q0 -4 -1 -31t-1 -37v-88l509 1090h209v661l27 39h-354l32 -43v-483q0 -4 -10 -11.5t-18 -7.5q-2 0 -25.5 -1t-44.5 -1q-10 0 -30.5 1t-34.5 1h-17q-8 0 -18 7.5t-10 11.5v483l43 45h-373z" />
<glyph unicode="z" horiz-adv-x="897" d="M35 1458v332h825v-621l-53 -51h-451v-983h62l440 922q0 -12 -1 -38t-1 -30l-207 -989h-502l-108 137v1125h463q23 2 36 4t13 18v352q0 12 -15.5 16.5t-35.5 4.5h-262z" />
<glyph unicode="{" horiz-adv-x="974" d="M35 1163l112 -78h121v-1085h674l-170 156h-168v1476h178l160 158h-700l26 -39v-510h-123q-20 -8 -55 -34.5t-55 -43.5z" />
<glyph unicode="|" horiz-adv-x="432" d="M35 0h362v1792h-362v-1792z" />
<glyph unicode="}" horiz-adv-x="974" d="M35 0l170 156h166v1476h-176l-160 158h702l-28 -39v-510h122q20 -8 54.5 -34.5t56.5 -43.5l-115 -78h-118v-1085h-674z" />
<glyph unicode="~" horiz-adv-x="749" d="M35 1092h182l57 86l56 -86h280l103 155h-185l-57 -86l-55 86h-279z" />
<glyph horiz-adv-x="456" />
<glyph unicode="&#xa1;" horiz-adv-x="432" d="M35 0v1327h362v-1327h-362zM39 1638v154h358v-154h-358z" />
<glyph unicode="&#xa2;" horiz-adv-x="765" d="M35 1405l28 -23v-979h383v-403h213v403h74v175l-74 -39v712l74 -43v197h-74v387h-213v-387h-411zM397 492v823q8 2 25 2q20 0 24 2v-827h-49z" />
<glyph unicode="&#xa3;" horiz-adv-x="1103" d="M35 1192l112 -78h134v-958h-129q-20 -8 -53 -35t-54 -43l113 -78h909l-33 49v668l-252 -572q-20 -10 -47 -10h-98q-25 0 -37 2t-14 19v940q0 12 6 15t22 3h236v150h-215q-25 0 -37 2t-12 18v352l73 21q23 0 34.5 -3t27.5 -14l147 -157v268l29 41h-618v-522h-134 q-20 -8 -55 -35t-55 -43z" />
<glyph unicode="&#xa4;" horiz-adv-x="978" d="M35 1790h358l-37 -39v-197h385l177 258q0 -61 -2.5 -96t-2.5 -39l-24 -123h16v-1515l39 -39h-393l29 39v254h-406l-129 -275v70q0 10 1 37t1 31l47 333v1262zM401 451q0 -16 17.5 -18.5t40.5 -2.5h82q25 0 42 2t17 19v948q0 16 -16.5 18t-40.5 2h-41h-39q-25 0 -42.5 -2 t-19.5 -18v-948z" />
<glyph unicode="&#xa5;" d="M35 1792l51 -45v-651h176v-135h-74q-20 -8 -54 -35t-56 -43l115 -78h49l-21 -152h-33q-20 -8 -54 -34.5t-56 -43.5l115 -77h8l-49 -342q0 -4 -1 -31t-1 -37v-88l231 498h182l117 75l-125 80h-100l71 152h37l117 76l-92 59l71 150h209v661l27 39h-354l32 -43v-483 q0 -4 -10 -11.5t-18 -7.5q-2 0 -25.5 -1t-44.5 -1q-10 0 -30.5 1t-34.5 1h-17q-8 0 -18 7.5t-10 11.5v483l43 45h-373z" />
<glyph unicode="&#xa6;" horiz-adv-x="432" d="M35 0v764h360v-764h-360zM35 1075v717h362v-717h-362z" />
<glyph unicode="&#xa7;" horiz-adv-x="944" d="M35 18v70q0 10 2 37t2 31l47 333v1065h649l174 258q0 -61 -2 -96t-2 -39l-22 -123h14v-1263l-733 2zM393 451q0 -16 15.5 -18.5t44.5 -2.5h77q25 0 42.5 2t17.5 19v948q0 16 -16.5 18t-41.5 2h-40h-37q-25 0 -42.5 -2t-19.5 -18v-948z" />
<glyph unicode="&#xa8;" horiz-adv-x="702" d="M35 1638v156h239v-156h-239zM428 1638v156h238v-156h-238z" />
<glyph unicode="&#xa9;" horiz-adv-x="3612" d="M35 723l258 35l-143 133l24 113l279 -23q0 264 104 264h12l262 -74q86 92 153 146.5t126 75.5l213 -111l422 168l96 -57l-24 -56l24 -18l469 74l162 -17l-23 -112h560l49 -39q0 -94 -95 -107l474 -98v-10v-13q0 -90 -168 -106q309 -88 309 -141q0 -2 -2 -4.5t-2 -4.5 l-47 -75h-211l139 -146q8 -2 8 -20v-15q0 -66 -74 -79l-233 34l-27 -219q-25 -41 -92 -41q-51 0 -105.5 19.5t-131.5 54.5l-232 -203l-119 -20l-139 112l-446 -184l-74 18v113l-586 -74l-71 35l22 92l-610 41v70l73 61l-372 54q-72 0 -72 71l145 95l-260 96zM106 686 l398 -166l-258 -94l563 -98l-191 -107l656 -20l-70 -129l586 92l74 -74l-23 -74l469 185l211 -111l234 225l303 -79l22 264l309 -41q2 12 3.5 17t1.5 3q0 55 -191 226l301 18l-24 35l-379 153l237 54h27l-27 39l-538 92l188 110h-631l43 131l-610 -73l-21 112l-47 17 l-424 -168l-188 112l-252 -219q-23 -4 -36 -7t-21 -3q-84 0 -232 80l-41 -260l-307 18l25 -76l162 -165zM618 510l44 336l73 12l-22 -323zM778 655v19q0 155 303 192l-8 -80q-16 6 -22.5 7.5t-20.5 1.5q-49 0 -112 -47q-61 -61 -62 -134q0 -66 88 -65q61 0 78 8l8 -55 q-29 -4 -50.5 -9.5t-35.5 -5.5q-123 0 -162 144q-4 2 -4 24zM1110 567q0 209 158 287q16 0 18 1t0 1h25q137 1 174 -108q-39 -229 -162 -230q-37 -6 -70 -6q-113 0 -143 55zM1192 653q0 -80 65 -80q29 0 111 29q35 47 35 98q0 27 -12 37q-25 43 -78 43q-70 0 -121 -104v-23z M1528 842l241 -211l13 227l73 -16v-324q-106 0 -253 158v-156l-66 -10zM1931 526l43 332l78 14l-20 -323zM2099 545q20 162 172 325q8 8 56 9q76 0 106 -103l10 -246l-57 15q-39 76 -98 76q-47 0 -103 -76h-86zM2228 692h133l-49 111zM2507 852l235 -209l19 229l69 -18v-326 q-98 0 -252 164v-162l-61 -4zM2890 498l57 32l62 -20l-70 -51zM2929 621l18 251l100 -20l-51 -240z" />
<glyph unicode="&#xaa;" horiz-adv-x="761" d="M35 0l248 1790h133l223 -975q29 -111 57.5 -219.5t28.5 -224.5q0 -94 -18.5 -193.5t-63.5 -216.5l-4 -10l-82 344h-154v-295h-368zM408 451h108l-86 344q-16 -82 -19 -161t-3 -161v-22z" />
<glyph unicode="&#xab;" horiz-adv-x="569" d="M35 1047l225 -95v166l-125 53l125 54v166l-225 -91v-253zM309 1051l223 -95v166l-122 54l122 53v166l-223 -90v-254z" />
<glyph unicode="&#xac;" horiz-adv-x="624" d="M35 1114h332v-59l108 -82l115 88v203h-555v-150z" />
<glyph unicode="&#xad;" horiz-adv-x="550" d="M35 1167l112 -77h250l119 77l-127 80h-242q-20 -10 -56 -36.5t-56 -43.5z" />
<glyph unicode="&#xae;" horiz-adv-x="3467" d="M35 686l397 -166l-258 -94l563 -98l-188 -107l655 -20l-71 -129l587 92l74 -74l-25 -74l469 185l211 -111l234 225l305 -79l21 264l309 -41q2 12 3 17t1 3q0 55 -191 226l301 18l-24 35l-375 153l236 54h24l-24 39l-541 92l188 110h-630l45 131l-611 -73l-22 112l-47 17 l-424 -168l-185 112l-256 -219q-25 -4 -38 -7t-15 -3q-84 0 -233 80l-43 -260l-307 18l24 -76l162 -165zM549 510l41 336l74 12l-21 -323zM709 655v19q0 155 303 192l-8 -80q-16 6 -22.5 7.5t-23.5 1.5q-49 0 -112 -47q-61 -63 -62 -134q0 -66 88 -65q66 0 82 8l4 -55 q-29 -4 -49 -9.5t-37 -5.5q-123 0 -161 144q-2 2 -2 24zM1042 567q0 213 154 287q16 0 19.5 1t-1.5 1h25q137 1 174 -108q-39 -229 -162 -230q-37 -6 -69 -6q-115 0 -140 55zM1120 653q0 -80 70 -80q16 0 41.5 7.5t66.5 21.5q33 45 33 98q0 29 -8 37q-31 43 -82 43 q-70 0 -121 -104v-23zM1458 842l240 -211l12 227l74 -16v-324q-100 0 -252 158v-156l-68 -10zM1860 526l43 332l77 14l-18 -323zM2030 545q20 162 170 325q10 8 57 9q76 0 104 -103l11 -246l-58 15q-39 76 -98 76q-47 0 -102 -76h-84zM2159 692h131l-49 111zM2435 852 l236 -209l18 229l72 -18v-326q-100 0 -254 164v-162l-62 -4zM2818 498l57 32l62 -20l-66 -51zM2859 621l16 251l101 -20l-51 -240z" />
<glyph unicode="&#xaf;" horiz-adv-x="972" d="M35 1751h903l-27 39h-848z" />
<glyph unicode="&#xb0;" horiz-adv-x="309" d="M35 1638v156h239v-156h-239z" />
<glyph unicode="&#xb1;" horiz-adv-x="624" d="M35 774h555v150h-555v-150zM35 1114h160v-59l110 -82l113 88v53h172v150h-172v51q-8 14 -45 38.5t-66 37.5l-112 -78v-49h-160v-150z" />
<glyph unicode="&#xb2;" horiz-adv-x="557" d="M35 733h485v195l-119 -117h-153q-12 0 -21.5 2t-9.5 10v209q0 10 7 11t24 1h270v664l-63 82h-295l-125 -584v-41l260 545h39v-580h-264l-35 -30v-367z" />
<glyph unicode="&#xb3;" horiz-adv-x="540" d="M35 733h467v668l-33 33l35 41v315h-469l18 -25v-157l189 94q10 6 15 7t22 1l43 -12v-207q0 -10 -7.5 -11t-21.5 -1h-236v-86h236q14 0 21.5 -1t7.5 -12v-555q0 -10 -7.5 -11t-21.5 -1h-60q-25 0 -26 6l-150 336v-393z" />
<glyph unicode="&#xb4;" horiz-adv-x="446" d="M35 1636h239l140 156h-242z" />
<glyph unicode="&#xb5;" d="M35 1790h354l-33 -43v-483q0 -4 9.5 -11.5t17.5 -7.5q2 0 26.5 -1t45.5 -1q10 0 30.5 1t34.5 1h17q6 0 17 7.5t11 11.5v483l-45 45h375l-51 -45v-651h-178v-142l110 -798q0 -4 1 -31t1 -37v-88l-508 1090h-209v661z" />
<glyph unicode="&#xb6;" horiz-adv-x="970" d="M35 18l508 1072h26v-1051l-26 -39h391l-29 39v1712l29 39h-871v-690l84 -2v-144l-108 -798q0 -4 -2 -31t-2 -37v-70zM344 1264v370q0 4 12.5 11.5t16.5 7.5l32 1t52 1t52 -1t34 -1q6 0 16 -7.5t10 -11.5v-370q0 -4 -10 -11.5t-16 -7.5q-2 0 -34 -1t-52 -1t-52 1l-32 1 q-4 0 -16.5 7.5t-12.5 11.5z" />
<glyph unicode="&#xb7;" horiz-adv-x="407" d="M35 1118v154h336v-154h-336z" />
<glyph unicode="&#xb8;" horiz-adv-x="432" d="M35 -350h362v350h-221l-2 -2v-270z" />
<glyph unicode="&#xb9;" horiz-adv-x="307" d="M35 733l18 23v1011l-18 23h184l31 -21v-1013l20 -23h-235z" />
<glyph unicode="&#xba;" horiz-adv-x="835" d="M35 967h764v825h-764v-825zM342 1124v512q2 16 16.5 18.5t36.5 2.5h19h28q25 0 37.5 -2t12.5 -19v-512q-2 -16 -15.5 -18t-36.5 -2h-47q-29 0 -40 2t-11 18z" />
<glyph unicode="&#xbb;" horiz-adv-x="569" d="M35 956v166l125 54l-125 53v166l225 -90v-254zM309 952v166l123 53l-123 54v166l223 -91v-253z" />
<glyph unicode="&#xbc;" horiz-adv-x="1380" d="M35 737l18 23v1012l-18 22h184l31 -20v-1014l20 -23h-235zM86 0l29 39l510 1716l-35 37h422l-29 -39l-506 -1714l29 -39h-420zM797 1057h221l-21 -23v-289h119v289l-20 23h247l-16 -23v-1011l16 -23h-249l16 23v636h-297v375z" />
<glyph unicode="&#xbd;" horiz-adv-x="1265" d="M35 737h235l-20 23v1014l-31 20h-184l18 -22v-1012zM86 0h420l-29 39l506 1714l29 39h-422l35 -37l-510 -1716zM741 0h488v195l-121 -117h-152q-33 0 -32 12v209q0 10 8 11t24 1h271v664l-64 82h-295l-127 -584v-41l263 545h38v-580h-266l-35 -30v-367z" />
<glyph unicode="&#xbe;" horiz-adv-x="1587" d="M35 737h467v668l-33 33l35 41v315h-469l18 -25v-157l189 94q10 6 15 7t22 1l43 -12v-207q0 -10 -7.5 -11t-21.5 -1h-236v-86h236q14 0 21.5 -1t7.5 -12v-555q0 -10 -7.5 -11t-21.5 -1h-60q-25 0 -26 6l-150 336v-393zM293 0h420l-29 39l506 1714l29 39h-422l34 -37 l-509 -1716zM1004 1057l16 -23v-375h297v-636l-17 -23h250l-16 23v1011l16 23h-247l20 -23v-289h-119v289l21 23h-221z" />
<glyph unicode="&#xbf;" horiz-adv-x="897" d="M35 0h825v332l-201 -199h-262q-20 0 -36.5 4t-16.5 17v352q0 16 10.5 18t34.5 4h420v797h-320v-653h-399l-55 -51v-621zM489 1636h320v154h-320v-154z" />
<glyph unicode="&#xc0;" horiz-adv-x="958" d="M35 0l26 39v1753h828v-1753l35 -39h-398l31 37v1053h-149v-1051l30 -39h-403zM262 2021h242l135 -155h-238zM408 1245h149v393h-149v-393z" />
<glyph unicode="&#xc1;" horiz-adv-x="958" d="M35 0h397l-31 37v1053h150v-1051l-31 -39h404l-27 39v1753h-827v-1753zM319 1866h238l139 155h-241zM401 1245v393h150v-393h-150z" />
<glyph unicode="&#xc2;" horiz-adv-x="958" d="M35 0h397l-31 37v1053h150v-1051l-31 -39h404l-27 39v1753h-827v-1753zM162 1866h239l76 86l78 -86h240l-131 155h-367zM401 1245v393h150v-393h-150z" />
<glyph unicode="&#xc3;" horiz-adv-x="958" d="M35 0h397l-31 37v1053h150v-1051l-31 -39h404l-27 39v1753h-827v-1753zM147 1862h181l57 86l57 -86h281l102 155h-186l-53 -86l-58 86h-278zM401 1245v393h150v-393h-150z" />
<glyph unicode="&#xc4;" horiz-adv-x="958" d="M35 0l35 39v1753h827v-1753l27 -39h-404l31 39v1051h-150v-1053l31 -37h-397zM162 1866v155h239v-155h-239zM401 1245h150v393h-150v-393zM555 1866v155h240v-155h-240z" />
<glyph unicode="&#xc5;" horiz-adv-x="958" d="M35 0l35 39v1753h827v-1753l27 -39h-404l31 39v1051h-150v-1053l31 -37h-397zM356 1864v155h238v-155h-238zM401 1245h150v393h-150v-393z" />
<glyph unicode="&#xc6;" horiz-adv-x="1267" d="M35 0h397l-31 37v1053h150v-1051l-31 -39h713v311l-166 -155h-123v931l129 76q-10 6 -29.5 16.5t-42 21.5t-43 22.5t-32.5 21.5v381q25 4 41 8t32 4q18 0 21 -2q12 -4 21.5 -6t25.5 -16l166 -174v350h-1163v-1751zM401 1245v393h150v-393h-150z" />
<glyph unicode="&#xc7;" horiz-adv-x="772" d="M35 1790l28 -39v-1751h244l-2 -2v-270l-141 -78h364v350h209v311l-168 -155h-168v1476q23 4 53.5 5t47.5 1q23 0 24 -2q8 -4 17.5 -6t25.5 -16l168 -174v350h-702z" />
<glyph unicode="&#xc8;" horiz-adv-x="856" d="M35 1167q20 16 56 34t56 24v526l-26 39h700v-350l-168 174q-14 14 -23 16t-24 6q-2 2 -18 2t-33.5 -4t-40.5 -8v-381q12 -10 32.5 -21.5t43 -22.5t42 -21.5t30.5 -16.5l-132 -76v-931h123l168 155v-311h-674v1090zM223 2019h244l135 -155h-237z" />
<glyph unicode="&#xc9;" horiz-adv-x="856" d="M35 1167l112 -77v-1090h674v311l-168 -155h-123v931l132 76q-10 6 -30 16.5t-42.5 21.5t-43 22.5t-32.5 21.5v381q23 4 40 8t34 4q16 0 18 -2q14 -4 23.5 -6t23.5 -16l168 -174v350h-700l26 -39v-526q-20 -6 -56 -23.5t-56 -34.5zM309 1864h240l139 155h-244z" />
<glyph unicode="&#xca;" horiz-adv-x="856" d="M35 1167l112 -77v-1090h674v311l-168 -155h-123v931l132 76q-10 6 -30 16.5t-42.5 21.5t-43 22.5t-32.5 21.5v381q23 4 40 8t34 4q16 0 18 -2q14 -4 23.5 -6t23.5 -16l168 -174v350h-700l26 -39v-526q-20 -6 -56 -23.5t-56 -34.5zM158 1864h237l76 86l78 -86h237 l-127 155h-366z" />
<glyph unicode="&#xcb;" horiz-adv-x="856" d="M35 1167q20 16 56 34t56 24v526l-26 39h700v-350l-168 174q-14 14 -23 16t-24 6q-2 2 -18 2t-33.5 -4t-40.5 -8v-381q12 -10 32.5 -21.5t43 -22.5t42 -21.5t30.5 -16.5l-132 -76v-931h123l168 155v-311h-674v1090zM150 1864v155h239v-155h-239zM543 1864v155h239v-155 h-239z" />
<glyph unicode="&#xcc;" horiz-adv-x="491" d="M35 0h422l-29 39v1714l25 39h-418l28 -39v-1714zM47 2019l139 -155h240l-135 155h-244z" />
<glyph unicode="&#xcd;" horiz-adv-x="491" d="M35 0l28 39v1714l-22 39h416l-29 -39v-1714l29 -39h-422zM70 1864l135 155h239l-137 -155h-237z" />
<glyph unicode="&#xce;" horiz-adv-x="477" d="M-76 1864h238l76 86l77 -86h240l-129 155h-367zM35 0h407l-28 39v1714l24 39h-403l28 -39v-1714z" />
<glyph unicode="&#xcf;" horiz-adv-x="477" d="M-76 1864v155h238v-155h-238zM35 0l28 39v1714l-28 39h403l-24 -39v-1714l28 -39h-407zM315 1864v155h240v-155h-240z" />
<glyph unicode="&#xd0;" horiz-adv-x="1019" d="M35 1163l112 -78h64v-1042l-35 -43h621l188 154v1638h-803l29 -41v-510h-64q-10 -4 -24 -13t-30.5 -20.5t-32 -24t-25.5 -20.5zM520 158v927l119 76l-119 74v399h158v-1413l-68 -63h-90z" />
<glyph unicode="&#xd1;" horiz-adv-x="997" d="M35 0h422l-29 39v1243l137 -496v-747l-24 -39h420l-29 39v1714l29 39h-420l34 -37v-569l-147 567l25 39h-418l28 -39v-1714zM145 1862h179l59 86l57 -86h281l102 155h-186l-57 -86l-54 86h-278z" />
<glyph unicode="&#xd2;" horiz-adv-x="882" d="M35 528v1262h811v-1262h-811zM197 0v147h493v-147h-493zM209 2019h244l135 -155h-240zM342 686q0 -16 17.5 -18t41.5 -2h80q25 0 42.5 2t17.5 18v948q-6 16 -20.5 18.5t-43.5 2.5h-37h-43q-23 0 -39 -2t-16 -19v-948z" />
<glyph unicode="&#xd3;" horiz-adv-x="882" d="M35 528h811v1262h-811v-1262zM193 0h491v147h-491v-147zM295 1864h237l142 155h-244zM342 686v948q2 16 19.5 18.5t41.5 2.5h39h41q25 0 41.5 -2t16.5 -19v-948q0 -16 -17.5 -18t-42.5 -2h-80q-25 0 -42 2t-17 18z" />
<glyph unicode="&#xd4;" horiz-adv-x="882" d="M35 528h811v1262h-811v-1262zM121 1864h237l80 86l76 -86h238l-129 155h-367zM193 0h491v147h-491v-147zM342 686v948q2 16 19.5 18.5t41.5 2.5h80q25 0 41.5 -2t16.5 -19v-948q0 -16 -17.5 -18t-42.5 -2h-80q-25 0 -42 2t-17 18z" />
<glyph unicode="&#xd5;" horiz-adv-x="882" d="M35 528h811v1262h-811v-1262zM100 1862h181l59 86l55 -86h281l102 155h-186l-55 -86l-56 86h-276zM193 0h491v147h-491v-147zM342 686v948q2 16 19.5 18.5t41.5 2.5h80q25 0 41.5 -2t16.5 -19v-948q0 -16 -17.5 -18t-42.5 -2h-80q-25 0 -42 2t-17 18z" />
<glyph unicode="&#xd6;" horiz-adv-x="882" d="M35 528v1262h811v-1262h-811zM127 1862v155h240v-155h-240zM193 0v147h491v-147h-491zM342 686q0 -16 17.5 -18t41.5 -2h80q25 0 42.5 2t17.5 18v948q0 16 -16.5 18.5t-41.5 2.5h-41h-39q-25 0 -42 -2t-19 -19v-948zM518 1862v155h240v-155h-240z" />
<glyph unicode="&#xd7;" horiz-adv-x="978" d="M35 0l26 39v1055l84 151l-82 432q0 4 -1 39t-1 96l381 -567h152q8 0 18.5 7.5t10.5 11.5v487l-35 39h356l-39 -39v-512l-106 -141l133 -942q0 -4 1 -31t1 -37v-70l-506 1072h-31v-1051l31 -39h-393z" />
<glyph unicode="&#xd8;" d="M35 0v1790h860v-1790h-860zM365 154q0 -14 14 -16.5t39 -2.5h65l-118 580v-559v-2zM393 1655l164 -555v534q0 16 -17 18.5t-40 2.5h-107z" />
<glyph unicode="&#xd9;" horiz-adv-x="960" d="M35 1792l28 -39v-1753h834v1753l29 39h-398l27 -39v-1599h-152v1601l37 37h-405zM266 2021l137 -155h240l-137 155h-240z" />
<glyph unicode="&#xda;" horiz-adv-x="960" d="M35 1792l28 -39v-1753h834v1753l29 39h-406l37 -37v-1601h-149v1599l24 39h-397zM319 1866h238l139 155h-241z" />
<glyph unicode="&#xdb;" horiz-adv-x="960" d="M35 1792l28 -39v-1753h834v1753l29 39h-406l37 -37v-1601h-149v1599l24 39h-397zM162 1866h239l76 86l78 -86h240l-131 155h-367z" />
<glyph unicode="&#xdc;" horiz-adv-x="960" d="M35 1792h397l-24 -39v-1599h149v1601l-37 37h406l-29 -39v-1753h-834v1753zM162 1866v155h239v-155h-239zM555 1866v155h240v-155h-240z" />
<glyph unicode="&#xdd;" d="M35 1792l51 -45v-651h176v-142l-110 -798q0 -4 -1 -31t-1 -37v-88l509 1090h209v661l27 39h-354l32 -43v-483q0 -4 -10 -11.5t-18 -7.5q-2 0 -25.5 -1t-44.5 -1q-10 0 -30.5 1t-34.5 1h-17q-8 0 -18 7.5t-10 11.5v483l43 45h-373zM354 1866h238l141 155h-244z" />
<glyph unicode="&#xde;" horiz-adv-x="972" d="M35 0h422l-29 39v541h455l55 28v645h-508v500l25 39h-420l28 -39v-1714zM432 745v353q0 16 14 18t37 2h97q29 0 40 -2t11 -18v-353q0 -16 -11.5 -18t-39.5 -2h-97q-23 0 -37 2t-14 18z" />
<glyph unicode="&#xdf;" horiz-adv-x="1130" d="M35 -348h362v1986h389v-354q0 -16 -12 -18t-37 -2h-219v-148h219q25 0 37 -2t12 -18v-957q-6 2 -8 3l-6 3l-254 572v-668l-2 -10l-29 -39h605v1130l-56 56l58 69v537h-1059v-2140z" />
<glyph unicode="&#xe0;" horiz-adv-x="761" d="M35 371q0 -94 19.5 -193.5t64.5 -216.5l2 -10l84 344h151v-295h369l-248 1790h-133l-223 -975q-29 -111 -57.5 -219.5t-28.5 -224.5zM150 2021l141 -155h237l-135 155h-243zM246 451l84 344q16 -82 20 -161t4 -161v-22h-108z" />
<glyph unicode="&#xe1;" horiz-adv-x="761" d="M35 371q0 -94 19.5 -193.5t64.5 -216.5l86 334h151v-295h369l-248 1790h-133l-223 -975q-29 -111 -57.5 -219.5t-28.5 -224.5zM246 451l84 344q16 -82 20 -161t4 -161v-22h-108zM262 1866h240l137 155h-242z" />
<glyph unicode="&#xe2;" horiz-adv-x="761" d="M35 371q0 -94 19.5 -193.5t64.5 -216.5l2 -10l84 344h151v-295h369l-248 1790h-133l-223 -975q-29 -111 -57.5 -219.5t-28.5 -224.5zM88 1860h240l75 86l78 -86h240l-131 155h-367zM246 451l84 344q16 -82 20 -161t4 -161v-22h-108z" />
<glyph unicode="&#xe3;" horiz-adv-x="784" d="M35 371q0 -94 19.5 -193.5t64.5 -216.5l2 -10l84 344h151v-295h369l-248 1790h-133l-223 -975q-29 -111 -57.5 -219.5t-28.5 -224.5zM72 1860h178l59 86l58 -86h280l103 155h-187l-57 -86l-53 86h-279zM246 451l84 344q16 -82 20 -161t4 -161v-22h-108z" />
<glyph unicode="&#xe4;" horiz-adv-x="761" d="M35 371q0 117 28.5 225.5t57.5 218.5l223 975h133l248 -1790h-369v295h-151l-84 -344l-2 10q-45 117 -64.5 216t-19.5 194zM94 1864v155h240v-155h-240zM246 451h108v22q0 82 -4 161t-20 161zM487 1864v155h238v-155h-238z" />
<glyph unicode="&#xe5;" horiz-adv-x="761" d="M35 371q0 117 28.5 225.5t57.5 218.5l223 975h133l248 -1790h-369v295h-151l-84 -344l-2 10q-45 117 -64.5 216t-19.5 194zM246 451h108v22q0 82 -4 161t-20 161zM283 1864v155h237v-155h-237z" />
<glyph unicode="&#xe6;" horiz-adv-x="1077" d="M35 371q0 -94 19.5 -193.5t64.5 -216.5l2 -10l84 344h151v-295h686v311l-168 -155h-122v931l131 76q-10 6 -29.5 16.5t-42.5 21.5t-43 22.5t-33 21.5v381q23 4 40.5 8t33.5 4t18 -2q14 -4 23.5 -6t23.5 -16l168 -174v350h-700l-221 -975q-29 -111 -57.5 -219.5 t-28.5 -224.5zM246 451l84 344q16 -82 20 -161t4 -161v-22h-108z" />
<glyph unicode="&#xe7;" horiz-adv-x="772" d="M35 1790l28 -39v-1751h244l-2 -2v-270l-141 -78h364v350h209v311l-168 -155h-168v1476q23 4 53.5 5t47.5 1q23 0 24 -2q8 -4 17.5 -6t25.5 -16l168 -174v350h-702z" />
<glyph unicode="&#xe8;" horiz-adv-x="856" d="M35 1167q20 16 56 34t56 24v526l-26 39h700v-350l-168 174q-14 14 -23 16t-24 6q-2 2 -18 2t-33.5 -4t-40.5 -8v-381q12 -10 32.5 -21.5t43 -22.5t42 -21.5t30.5 -16.5l-132 -76v-931h123l168 155v-311h-674v1090zM223 2019h244l135 -155h-237z" />
<glyph unicode="&#xe9;" horiz-adv-x="856" d="M35 1167l112 -77v-1090h674v311l-168 -155h-123v931l132 76q-10 6 -30 16.5t-42.5 21.5t-43 22.5t-32.5 21.5v381q23 4 40 8t34 4q16 0 18 -2q14 -4 23.5 -6t23.5 -16l168 -174v350h-700l26 -39v-526q-20 -6 -56 -23.5t-56 -34.5zM309 1864h240l139 155h-244z" />
<glyph unicode="&#xea;" horiz-adv-x="856" d="M35 1167l112 -77v-1090h674v311l-168 -155h-123v931l132 76q-10 6 -30 16.5t-42.5 21.5t-43 22.5t-32.5 21.5v381q23 4 40 8t34 4q16 0 18 -2q14 -4 23.5 -6t23.5 -16l168 -174v350h-700l26 -39v-526q-20 -6 -56 -23.5t-56 -34.5zM158 1864h237l76 86l78 -86h237 l-127 155h-366z" />
<glyph unicode="&#xeb;" horiz-adv-x="856" d="M35 1167q20 16 56 34t56 24v526l-26 39h700v-350l-168 174q-14 14 -23 16t-24 6q-2 2 -18 2t-33.5 -4t-40.5 -8v-381q12 -10 32.5 -21.5t43 -22.5t42 -21.5t30.5 -16.5l-132 -76v-931h123l168 155v-311h-674v1090zM150 1864v155h239v-155h-239zM543 1864v155h239v-155 h-239z" />
<glyph unicode="&#xec;" horiz-adv-x="491" d="M35 0h422l-29 39v1714l25 39h-418l28 -39v-1714zM47 2019l139 -155h240l-135 155h-244z" />
<glyph unicode="&#xed;" horiz-adv-x="491" d="M35 0l28 39v1714l-22 39h416l-29 -39v-1714l29 -39h-422zM70 1864l135 155h239l-137 -155h-237z" />
<glyph unicode="&#xee;" horiz-adv-x="477" d="M-76 1864h238l76 86l77 -86h240l-129 155h-367zM35 0h407l-28 39v1714l24 39h-403l28 -39v-1714z" />
<glyph unicode="&#xef;" horiz-adv-x="477" d="M-76 1864v155h238v-155h-238zM35 0l28 39v1714l-28 39h403l-24 -39v-1714l28 -39h-407zM315 1864v155h240v-155h-240z" />
<glyph unicode="&#xf0;" horiz-adv-x="897" d="M35 0v1266h461v366q-29 4 -56.5 5t-44.5 1q-23 0 -24 -2q-10 -4 -18.5 -6t-24.5 -16l-168 -174v350h700l-29 -39v-1751h-796zM344 156h152v870h-152v-870z" />
<glyph unicode="&#xf1;" horiz-adv-x="997" d="M35 0h422l-29 39v1188l137 -441v-747l-24 -39h420l-29 39v1714l29 39h-420l34 -37v-528l-147 526l25 39h-418l28 -39v-1714zM145 1862h179l59 86l57 -86h281l102 155h-186l-57 -86l-54 86h-278z" />
<glyph unicode="&#xf2;" d="M35 0v1790h860v-1790h-860zM223 2021h244l135 -155h-237zM358 156q0 -16 14.5 -18.5t37.5 -2.5h96q29 0 40 2t11 19v1478q0 16 -11 18.5t-40 2.5h-49h-47q-23 0 -37.5 -2t-14.5 -19v-1478z" />
<glyph unicode="&#xf3;" d="M35 0h860v1790h-860v-1790zM328 1866h237l140 155h-242zM371 156v1478q0 16 11 18.5t40 2.5h96q25 0 38 -2t13 -19v-1478q0 -16 -13 -18.5t-38 -2.5h-96q-29 0 -40 2t-11 19z" />
<glyph unicode="&#xf4;" d="M35 0h860v1790h-860v-1790zM162 1864h239l76 86l78 -86h240l-131 155h-367zM371 156v1478q0 16 11 18.5t40 2.5h96q25 0 38 -2t13 -19v-1478q0 -16 -13 -18.5t-38 -2.5h-96q-29 0 -40 2t-11 19z" />
<glyph unicode="&#xf5;" d="M35 0h860v1790h-860v-1790zM131 1864h178l60 86l57 -86h279l104 155h-186l-58 -86l-53 86h-279zM371 156v1478q0 16 11 18.5t40 2.5h96q25 0 38 -2t13 -19v-1478q0 -16 -13 -18.5t-38 -2.5h-96q-29 0 -40 2t-11 19z" />
<glyph unicode="&#xf6;" d="M35 0v1790h860v-1790h-860zM152 1864v155h241v-155h-241zM371 156q0 -16 11 -18.5t40 -2.5h96q25 0 38 2t13 19v1478q0 16 -13 18.5t-38 2.5h-47h-49q-29 0 -40 -2t-11 -19v-1478zM545 1864v155h239v-155h-239z" />
<glyph unicode="&#xf7;" horiz-adv-x="954" d="M35 1167q10 8 25.5 20.5t32 24t30.5 20.5t24 13h644l127 -80l-119 -75h-652zM291 1399q16 16 51 42.5t55 35.5h119l127 -80l-117 -76h-125zM293 934q8 8 22.5 20.5t29.5 23.5t30.5 20.5t25.5 13.5h117l129 -80l-119 -76h-125z" />
<glyph unicode="&#xf8;" d="M35 0h860v1790h-860v-1790zM371 1100v534q0 16 17 18.5t42 2.5h107zM444 135l121 580v-559v-2q0 -14 -15 -16.5t-38 -2.5h-68z" />
<glyph unicode="&#xf9;" horiz-adv-x="960" d="M35 1792l28 -39v-1753h834v1753l29 39h-398l27 -39v-1599h-152v1601l37 37h-405zM266 2021l137 -155h240l-137 155h-240z" />
<glyph unicode="&#xfa;" horiz-adv-x="960" d="M35 1792l28 -39v-1753h834v1753l29 39h-406l37 -37v-1601h-149v1599l24 39h-397zM319 1866h238l139 155h-241z" />
<glyph unicode="&#xfb;" horiz-adv-x="960" d="M35 1792l28 -39v-1753h834v1753l29 39h-406l37 -37v-1601h-149v1599l24 39h-397zM162 1866h239l76 86l78 -86h240l-131 155h-367z" />
<glyph unicode="&#xfc;" horiz-adv-x="960" d="M35 1792h397l-24 -39v-1599h149v1601l-37 37h406l-29 -39v-1753h-834v1753zM162 1866v155h239v-155h-239zM555 1866v155h240v-155h-240z" />
<glyph unicode="&#xfd;" d="M35 1792l51 -45v-651h176v-142l-110 -798q0 -4 -1 -31t-1 -37v-88l509 1090h209v661l27 39h-354l32 -43v-483q0 -4 -10 -11.5t-18 -7.5q-2 0 -25.5 -1t-44.5 -1q-10 0 -30.5 1t-34.5 1h-17q-8 0 -18 7.5t-10 11.5v483l43 45h-373zM354 1866h238l141 155h-244z" />
<glyph unicode="&#xfe;" horiz-adv-x="972" d="M35 0h422l-29 39v541h455l55 28v645h-508v500l25 39h-420l28 -39v-1714zM432 745v353q0 16 14 18t37 2h97q29 0 40 -2t11 -18v-353q0 -16 -11.5 -18t-39.5 -2h-97q-23 0 -37 2t-14 18z" />
<glyph unicode="&#xff;" d="M35 1792h373l-43 -45v-483q0 -4 10 -11.5t18 -7.5h17q14 0 34.5 -1t30.5 -1q20 0 44 1t26 1q8 0 18 7.5t10 11.5v483l-32 43h354l-27 -39v-661h-209l-509 -1090v88q0 10 1 37t1 31l110 798v142h-176v651zM160 1866v155h237v-155h-237zM551 1866v155h240v-155h-240z" />
<glyph unicode="&#x152;" horiz-adv-x="1415" d="M35 1790l28 -39v-1751h1317v311l-166 -155h-122v931l129 76q-10 6 -30 16.5t-42.5 21.5t-43 22.5t-32.5 21.5v381q25 4 41 8t33 4q18 0 20 -2q12 -4 21.5 -6t25.5 -16l166 -174v350h-1345zM401 156v1476q23 4 53.5 5t47.5 1q23 0 24 -2q8 -4 17.5 -6t25.5 -16l140 -144 v-245q-23 -6 -58 -23.5t-57 -34.5l115 -77v-807l-140 -127h-168z" />
<glyph unicode="&#x153;" horiz-adv-x="1415" d="M35 1790l28 -39v-1751h1317v311l-166 -155h-122v931l129 76q-10 6 -30 16.5t-42.5 21.5t-43 22.5t-32.5 21.5v381q25 4 41 8t33 4q18 0 20 -2q12 -4 21.5 -6t25.5 -16l166 -174v350h-1345zM401 156v1476q23 4 53.5 5t47.5 1q23 0 24 -2q8 -4 17.5 -6t25.5 -16l140 -144 v-245q-23 -6 -58 -23.5t-57 -34.5l115 -77v-807l-140 -127h-168z" />
<glyph unicode="&#x178;" d="M35 1792h373l-43 -45v-483q0 -4 10 -11.5t18 -7.5h17q14 0 34.5 -1t30.5 -1q20 0 44 1t26 1q8 0 18 7.5t10 11.5v483l-32 43h354l-27 -39v-661h-209l-509 -1090v88q0 10 1 37t1 31l110 798v142h-176v651zM160 1866v155h237v-155h-237zM551 1866v155h240v-155h-240z" />
<glyph unicode="&#x2c6;" horiz-adv-x="702" d="M35 1636h239l78 86l76 -86h238l-129 156h-365z" />
<glyph unicode="&#x2dc;" horiz-adv-x="749" d="M35 1634h182l57 86l56 -86h280l103 156h-185l-57 -86l-55 86h-279z" />
<glyph unicode="&#x2000;" horiz-adv-x="1010" />
<glyph unicode="&#x2001;" horiz-adv-x="2021" />
<glyph unicode="&#x2002;" horiz-adv-x="1010" />
<glyph unicode="&#x2003;" horiz-adv-x="2021" />
<glyph unicode="&#x2004;" horiz-adv-x="673" />
<glyph unicode="&#x2005;" horiz-adv-x="505" />
<glyph unicode="&#x2006;" horiz-adv-x="336" />
<glyph unicode="&#x2007;" horiz-adv-x="336" />
<glyph unicode="&#x2008;" horiz-adv-x="252" />
<glyph unicode="&#x2009;" horiz-adv-x="404" />
<glyph unicode="&#x200a;" horiz-adv-x="112" />
<glyph unicode="&#x2010;" horiz-adv-x="675" d="M35 1167l112 -77h373l119 75l-125 80h-367q-10 -4 -24 -13t-30.5 -20.5t-32 -23.5t-25.5 -21z" />
<glyph unicode="&#x2011;" horiz-adv-x="675" d="M35 1167l112 -77h373l119 75l-125 80h-367q-10 -4 -24 -13t-30.5 -20.5t-32 -23.5t-25.5 -21z" />
<glyph unicode="&#x2012;" horiz-adv-x="675" d="M35 1167l112 -77h373l119 75l-125 80h-367q-10 -4 -24 -13t-30.5 -20.5t-32 -23.5t-25.5 -21z" />
<glyph unicode="&#x2013;" horiz-adv-x="675" d="M35 1167l112 -77h373l119 75l-125 80h-367q-10 -4 -24 -13t-30.5 -20.5t-32 -23.5t-25.5 -21z" />
<glyph unicode="&#x2014;" horiz-adv-x="954" d="M35 1167l112 -77h652l119 75l-127 80h-644q-10 -4 -24 -13t-30.5 -20.5t-32 -23.5t-25.5 -21z" />
<glyph unicode="&#x2018;" horiz-adv-x="403" d="M35 1425v281l115 88l106 -82v-133h113v-154h-334z" />
<glyph unicode="&#x2019;" horiz-adv-x="403" d="M35 1640v154h334v-281l-115 -88l-107 82v133h-112z" />
<glyph unicode="&#x201a;" horiz-adv-x="403" d="M35 0h112v-133l107 -82l115 88v281h-334v-154z" />
<glyph unicode="&#x201c;" horiz-adv-x="786" d="M35 1425v281l115 88l106 -82v-133h113v-154h-334zM418 1425v281l114 88l107 -82v-133h113v-154h-334z" />
<glyph unicode="&#x201d;" horiz-adv-x="786" d="M35 1640v154h334v-281l-115 -88l-107 82v133h-112zM418 1640v154h334v-281l-115 -88l-107 82v133h-112z" />
<glyph unicode="&#x201e;" horiz-adv-x="798" d="M35 2h112v-133l107 -82l115 88v281h-334v-154zM430 0h113v-133l106 -82l115 88v281h-334v-154z" />
<glyph unicode="&#x2022;" horiz-adv-x="268" d="M35 156q0 -16 13 -18.5t38 -2.5h96q29 0 40 2t11 19v1478q0 16 -11 18.5t-40 2.5h-47h-49q-25 0 -38 -2t-13 -19v-1478z" />
<glyph unicode="&#x2026;" horiz-adv-x="1232" d="M35 0v154h336v-154h-336zM453 0v154h333v-154h-333zM860 0v154h336v-154h-336z" />
<glyph unicode="&#x202f;" horiz-adv-x="404" />
<glyph unicode="&#x2039;" horiz-adv-x="294" d="M35 1047l225 -95v166l-125 53l125 54v166l-225 -91v-253z" />
<glyph unicode="&#x203a;" horiz-adv-x="294" d="M35 952v166l125 53l-125 54v166l225 -91v-253z" />
<glyph unicode="&#x205f;" horiz-adv-x="505" />
<glyph unicode="&#x20ac;" horiz-adv-x="974" d="M35 1018l112 -78h121v-940h674v311l-170 -155h-168v782h113l119 76l-127 82h-105v149h113l119 76l-127 82h-105v229q25 4 54.5 5t46.5 1q20 0 22 -2q10 -4 19.5 -6t25.5 -16l170 -174v350h-704l30 -39v-348h-123q-20 -8 -55 -35t-55 -43l112 -78h121v-151h-123 q-20 -8 -55 -35t-55 -43z" />
<glyph unicode="&#x2122;" horiz-adv-x="2496" d="M35 510l41 336l74 12l-19 -323zM195 655v19q0 155 305 192l-11 -80q-16 6 -22 7.5t-23 1.5q-53 0 -110 -47q-63 -68 -64 -134q0 -66 88 -65q66 0 82 8l4 -55q-29 -4 -49 -9.5t-37 -5.5q-123 0 -161 144q-2 2 -2 24zM528 567q0 213 156 287q16 0 18.5 1t-0.5 1h23 q137 1 174 -108q-39 -229 -162 -230q-37 -6 -69 -6q-115 0 -140 55zM606 653q0 -80 70 -80q29 0 108 29q37 45 37 98q0 25 -12 37q-29 43 -82 43q-66 0 -121 -104v-23zM944 842l240 -211l12 227l74 -16v-324q-100 0 -252 158v-156l-64 -10zM1348 526l41 332l81 14l-22 -323z M1516 545q25 162 170 325q10 8 57 9q76 0 104 -103l11 -246l-56 15q-43 76 -96 76t-104 -76h-86zM1647 692h133l-51 111zM1921 852l238 -209l18 229l70 -18v-326q-96 0 -254 164v-162l-62 -4zM2306 498l55 32l62 -20l-66 -51zM2345 621l16 251l101 -20l-49 -240z" />
<glyph unicode="&#x25fc;" horiz-adv-x="1812" d="M0 0v1812h1812v-1812h-1812z" />
</font>
</defs>
</svg>
